<mxfile host="" modified="2020-06-05T15:23:02.896Z" agent="5.0 (X11; Linux x86_64) AppleWebKit/537.36 (KHTML, like Gecko) Code/1.45.1 Chrome/78.0.3904.130 Electron/7.2.4 Safari/537.36" etag="weie2JD9ne0G_s_XO8E7" version="13.1.3">
    <diagram id="6hGFLwfOUW9BJ-s0fimq" name="Page-1">
        <mxGraphModel dx="5766" dy="1498" grid="0" gridSize="10" guides="1" tooltips="1" connect="1" arrows="1" fold="1" page="1" pageScale="1" pageWidth="827" pageHeight="1169" background="#ffffff" math="0" shadow="0">
            <root>
                <mxCell id="0"/>
                <mxCell id="1" parent="0"/>
                <mxCell id="2" value="&lt;font color=&quot;#000000&quot;&gt;value&lt;/font&gt;" style="rounded=0;whiteSpace=wrap;html=1;fillColor=#FFFFFF;strokeColor=#000000;fontSize=24;" parent="1" vertex="1">
                    <mxGeometry x="107" y="163" width="70" height="60" as="geometry"/>
                </mxCell>
                <mxCell id="3" value="&lt;font color=&quot;#000000&quot;&gt;next&lt;/font&gt;" style="rounded=0;whiteSpace=wrap;html=1;fillColor=#FFFFFF;strokeColor=#000000;fontSize=24;" parent="1" vertex="1">
                    <mxGeometry x="177" y="163" width="65" height="60" as="geometry"/>
                </mxCell>
                <mxCell id="5" value="&lt;font color=&quot;#000000&quot;&gt;value&lt;/font&gt;" style="rounded=0;whiteSpace=wrap;html=1;fillColor=#FFFFFF;strokeColor=#000000;fontSize=24;" parent="1" vertex="1">
                    <mxGeometry x="346" y="165" width="70" height="60" as="geometry"/>
                </mxCell>
                <mxCell id="6" value="&lt;font color=&quot;#000000&quot;&gt;next&lt;/font&gt;" style="rounded=0;whiteSpace=wrap;html=1;fillColor=#FFFFFF;strokeColor=#000000;fontSize=24;" parent="1" vertex="1">
                    <mxGeometry x="416" y="165" width="65" height="60" as="geometry"/>
                </mxCell>
                <mxCell id="7" value="&lt;font color=&quot;#000000&quot;&gt;value&lt;/font&gt;" style="rounded=0;whiteSpace=wrap;html=1;fillColor=#FFFFFF;strokeColor=#000000;fontSize=24;" parent="1" vertex="1">
                    <mxGeometry x="558" y="165" width="70" height="60" as="geometry"/>
                </mxCell>
                <mxCell id="8" value="&lt;font color=&quot;#000000&quot;&gt;next&lt;/font&gt;" style="rounded=0;whiteSpace=wrap;html=1;fillColor=#FFFFFF;strokeColor=#000000;fontSize=24;" parent="1" vertex="1">
                    <mxGeometry x="628" y="165" width="65" height="60" as="geometry"/>
                </mxCell>
                <mxCell id="9" value="" style="endArrow=classic;html=1;fontSize=24;entryX=0;entryY=0.5;entryDx=0;entryDy=0;exitX=1;exitY=0.5;exitDx=0;exitDy=0;fontColor=#000000;strokeColor=#000000;" parent="1" source="3" target="5" edge="1">
                    <mxGeometry width="50" height="50" relative="1" as="geometry">
                        <mxPoint x="240" y="230" as="sourcePoint"/>
                        <mxPoint x="290" y="180" as="targetPoint"/>
                    </mxGeometry>
                </mxCell>
                <mxCell id="10" value="" style="endArrow=classic;html=1;fontSize=24;exitX=1;exitY=0.5;exitDx=0;exitDy=0;fontColor=#000000;strokeColor=#000000;" parent="1" edge="1">
                    <mxGeometry width="50" height="50" relative="1" as="geometry">
                        <mxPoint x="478" y="199" as="sourcePoint"/>
                        <mxPoint x="557" y="201" as="targetPoint"/>
                    </mxGeometry>
                </mxCell>
                <mxCell id="11" value="头节点header&lt;br&gt;" style="text;html=1;align=center;verticalAlign=middle;resizable=0;points=[];autosize=1;fontSize=24;fontColor=#000000;" parent="1" vertex="1">
                    <mxGeometry x="93" y="236" width="157" height="33" as="geometry"/>
                </mxCell>
                <mxCell id="12" value="尾节点 tail" style="text;html=1;align=center;verticalAlign=middle;resizable=0;points=[];autosize=1;fontSize=24;fontColor=#000000;" parent="1" vertex="1">
                    <mxGeometry x="566" y="244" width="119" height="33" as="geometry"/>
                </mxCell>
                <mxCell id="13" value="&lt;font color=&quot;#000000&quot;&gt;value&lt;/font&gt;" style="rounded=0;whiteSpace=wrap;html=1;fillColor=#FFFFFF;strokeColor=#000000;fontSize=24;" parent="1" vertex="1">
                    <mxGeometry x="107" y="79" width="70" height="60" as="geometry"/>
                </mxCell>
                <mxCell id="14" value="&lt;font color=&quot;#000000&quot;&gt;next&lt;/font&gt;" style="rounded=0;whiteSpace=wrap;html=1;fillColor=#FFFFFF;strokeColor=#000000;fontSize=24;" parent="1" vertex="1">
                    <mxGeometry x="177" y="79" width="65" height="60" as="geometry"/>
                </mxCell>
                <mxCell id="15" value="" style="endArrow=classic;html=1;fontSize=24;exitX=1;exitY=0.5;exitDx=0;exitDy=0;fontColor=#000000;strokeColor=#000000;" parent="1" edge="1">
                    <mxGeometry width="50" height="50" relative="1" as="geometry">
                        <mxPoint x="694.9999999999998" y="200" as="sourcePoint"/>
                        <mxPoint x="774" y="202" as="targetPoint"/>
                    </mxGeometry>
                </mxCell>
                <mxCell id="16" value="NULL&lt;br&gt;" style="text;html=1;align=center;verticalAlign=middle;resizable=0;points=[];autosize=1;fontSize=24;fontColor=#000000;" parent="1" vertex="1">
                    <mxGeometry x="772" y="186" width="71" height="33" as="geometry"/>
                </mxCell>
                <mxCell id="23" value="" style="endArrow=open;endFill=1;endSize=12;html=1;strokeColor=#000000;fontSize=24;fontColor=#000000;exitX=1;exitY=0.5;exitDx=0;exitDy=0;entryX=0.492;entryY=0.022;entryDx=0;entryDy=0;entryPerimeter=0;" parent="1" source="14" target="13" edge="1">
                    <mxGeometry width="160" relative="1" as="geometry">
                        <mxPoint x="196" y="64" as="sourcePoint"/>
                        <mxPoint x="106" y="109" as="targetPoint"/>
                        <Array as="points">
                            <mxPoint x="276" y="109"/>
                            <mxPoint x="276" y="40"/>
                            <mxPoint x="242" y="40"/>
                            <mxPoint x="141" y="40"/>
                        </Array>
                    </mxGeometry>
                </mxCell>
                <mxCell id="26" value="&lt;font color=&quot;#000000&quot;&gt;value&lt;/font&gt;" style="rounded=0;whiteSpace=wrap;html=1;fillColor=#FFFFFF;strokeColor=#000000;fontSize=24;" parent="1" vertex="1">
                    <mxGeometry x="224.5" y="331" width="70" height="60" as="geometry"/>
                </mxCell>
                <mxCell id="27" value="&lt;font color=&quot;#000000&quot;&gt;next&lt;/font&gt;" style="rounded=0;whiteSpace=wrap;html=1;fillColor=#FFFFFF;strokeColor=#000000;fontSize=24;" parent="1" vertex="1">
                    <mxGeometry x="294.5" y="331" width="65" height="60" as="geometry"/>
                </mxCell>
                <mxCell id="28" value="&lt;font color=&quot;#000000&quot;&gt;value&lt;/font&gt;" style="rounded=0;whiteSpace=wrap;html=1;fillColor=#FFFFFF;strokeColor=#000000;fontSize=24;" parent="1" vertex="1">
                    <mxGeometry x="524.5" y="331" width="70" height="60" as="geometry"/>
                </mxCell>
                <mxCell id="29" value="&lt;font color=&quot;#000000&quot;&gt;next&lt;/font&gt;" style="rounded=0;whiteSpace=wrap;html=1;fillColor=#FFFFFF;strokeColor=#000000;fontSize=24;" parent="1" vertex="1">
                    <mxGeometry x="594.5" y="331" width="65" height="60" as="geometry"/>
                </mxCell>
                <mxCell id="30" value="&lt;font color=&quot;#000000&quot;&gt;value&lt;/font&gt;" style="rounded=0;whiteSpace=wrap;html=1;fillColor=#FFFFFF;strokeColor=#000000;fontSize=24;" parent="1" vertex="1">
                    <mxGeometry x="811.5" y="333" width="70" height="60" as="geometry"/>
                </mxCell>
                <mxCell id="31" value="&lt;font color=&quot;#000000&quot;&gt;next&lt;/font&gt;" style="rounded=0;whiteSpace=wrap;html=1;fillColor=#FFFFFF;strokeColor=#000000;fontSize=24;" parent="1" vertex="1">
                    <mxGeometry x="881.5" y="333" width="65" height="60" as="geometry"/>
                </mxCell>
                <mxCell id="32" value="" style="endArrow=classic;html=1;fontSize=24;fontColor=#000000;strokeColor=#000000;" parent="1" edge="1">
                    <mxGeometry width="50" height="50" relative="1" as="geometry">
                        <mxPoint x="359.5" y="363" as="sourcePoint"/>
                        <mxPoint x="452.5" y="363" as="targetPoint"/>
                    </mxGeometry>
                </mxCell>
                <mxCell id="33" value="" style="endArrow=classic;html=1;fontSize=24;exitX=1;exitY=0.5;exitDx=0;exitDy=0;fontColor=#000000;strokeColor=#000000;" parent="1" edge="1">
                    <mxGeometry width="50" height="50" relative="1" as="geometry">
                        <mxPoint x="656.5" y="365" as="sourcePoint"/>
                        <mxPoint x="735.5" y="367" as="targetPoint"/>
                    </mxGeometry>
                </mxCell>
                <mxCell id="34" value="" style="endArrow=classic;html=1;fontSize=24;exitX=1;exitY=0.5;exitDx=0;exitDy=0;fontColor=#000000;strokeColor=#000000;" parent="1" edge="1">
                    <mxGeometry width="50" height="50" relative="1" as="geometry">
                        <mxPoint x="948.4999999999998" y="368" as="sourcePoint"/>
                        <mxPoint x="1027.5" y="370" as="targetPoint"/>
                    </mxGeometry>
                </mxCell>
                <mxCell id="35" value="NULL&lt;br&gt;" style="text;html=1;align=center;verticalAlign=middle;resizable=0;points=[];autosize=1;fontSize=24;fontColor=#000000;" parent="1" vertex="1">
                    <mxGeometry x="1025.5" y="354" width="71" height="33" as="geometry"/>
                </mxCell>
                <mxCell id="36" value="&lt;font color=&quot;#000000&quot;&gt;pre&lt;/font&gt;" style="rounded=0;whiteSpace=wrap;html=1;fillColor=#FFFFFF;strokeColor=#000000;fontSize=24;" parent="1" vertex="1">
                    <mxGeometry x="154.5" y="331" width="70" height="60" as="geometry"/>
                </mxCell>
                <mxCell id="37" value="&lt;font color=&quot;#000000&quot;&gt;pre&lt;/font&gt;" style="rounded=0;whiteSpace=wrap;html=1;fillColor=#FFFFFF;strokeColor=#000000;fontSize=24;" parent="1" vertex="1">
                    <mxGeometry x="454.5" y="331" width="70" height="60" as="geometry"/>
                </mxCell>
                <mxCell id="38" value="&lt;font color=&quot;#000000&quot;&gt;pre&lt;/font&gt;" style="rounded=0;whiteSpace=wrap;html=1;fillColor=#FFFFFF;strokeColor=#000000;fontSize=24;" parent="1" vertex="1">
                    <mxGeometry x="741.5" y="333" width="70" height="60" as="geometry"/>
                </mxCell>
                <mxCell id="39" value="" style="endArrow=classic;html=1;fontSize=24;fontColor=#000000;strokeColor=#000000;" parent="1" edge="1">
                    <mxGeometry width="50" height="50" relative="1" as="geometry">
                        <mxPoint x="451.5" y="338" as="sourcePoint"/>
                        <mxPoint x="363.5" y="338" as="targetPoint"/>
                    </mxGeometry>
                </mxCell>
                <mxCell id="40" value="" style="endArrow=classic;html=1;fontSize=24;fontColor=#000000;strokeColor=#000000;" parent="1" edge="1">
                    <mxGeometry width="50" height="50" relative="1" as="geometry">
                        <mxPoint x="741.5" y="340" as="sourcePoint"/>
                        <mxPoint x="662.5" y="340" as="targetPoint"/>
                    </mxGeometry>
                </mxCell>
                <mxCell id="43" value="" style="endArrow=classic;html=1;fontSize=24;fontColor=#000000;strokeColor=#000000;" parent="1" edge="1">
                    <mxGeometry width="50" height="50" relative="1" as="geometry">
                        <mxPoint x="151" y="360.29" as="sourcePoint"/>
                        <mxPoint x="63" y="360.29" as="targetPoint"/>
                    </mxGeometry>
                </mxCell>
                <mxCell id="44" value="NULL&lt;br&gt;" style="text;html=1;align=center;verticalAlign=middle;resizable=0;points=[];autosize=1;fontSize=24;fontColor=#000000;" parent="1" vertex="1">
                    <mxGeometry x="-8" y="346.5" width="71" height="33" as="geometry"/>
                </mxCell>
                <mxCell id="45" value="&lt;font color=&quot;#000000&quot;&gt;value&lt;/font&gt;" style="rounded=0;whiteSpace=wrap;html=1;fillColor=#FFFFFF;strokeColor=#000000;fontSize=24;" parent="1" vertex="1">
                    <mxGeometry x="145.5" y="534" width="70" height="60" as="geometry"/>
                </mxCell>
                <mxCell id="46" value="&lt;font color=&quot;#000000&quot;&gt;next&lt;/font&gt;" style="rounded=0;whiteSpace=wrap;html=1;fillColor=#FFFFFF;strokeColor=#000000;fontSize=24;" parent="1" vertex="1">
                    <mxGeometry x="215.5" y="534" width="65" height="60" as="geometry"/>
                </mxCell>
                <mxCell id="47" value="&lt;font color=&quot;#000000&quot;&gt;value&lt;/font&gt;" style="rounded=0;whiteSpace=wrap;html=1;fillColor=#FFFFFF;strokeColor=#000000;fontSize=24;" parent="1" vertex="1">
                    <mxGeometry x="384.5" y="536" width="70" height="60" as="geometry"/>
                </mxCell>
                <mxCell id="48" value="&lt;font color=&quot;#000000&quot;&gt;next&lt;/font&gt;" style="rounded=0;whiteSpace=wrap;html=1;fillColor=#FFFFFF;strokeColor=#000000;fontSize=24;" parent="1" vertex="1">
                    <mxGeometry x="454.5" y="536" width="65" height="60" as="geometry"/>
                </mxCell>
                <mxCell id="49" value="&lt;font color=&quot;#000000&quot;&gt;value&lt;/font&gt;" style="rounded=0;whiteSpace=wrap;html=1;fillColor=#FFFFFF;strokeColor=#000000;fontSize=24;" parent="1" vertex="1">
                    <mxGeometry x="596.5" y="536" width="70" height="60" as="geometry"/>
                </mxCell>
                <mxCell id="50" value="&lt;font color=&quot;#000000&quot;&gt;next&lt;/font&gt;" style="rounded=0;whiteSpace=wrap;html=1;fillColor=#FFFFFF;strokeColor=#000000;fontSize=24;" parent="1" vertex="1">
                    <mxGeometry x="666.5" y="536" width="65" height="60" as="geometry"/>
                </mxCell>
                <mxCell id="51" value="" style="endArrow=classic;html=1;fontSize=24;entryX=0;entryY=0.5;entryDx=0;entryDy=0;exitX=1;exitY=0.5;exitDx=0;exitDy=0;fontColor=#000000;strokeColor=#000000;" parent="1" source="46" target="47" edge="1">
                    <mxGeometry width="50" height="50" relative="1" as="geometry">
                        <mxPoint x="278.5" y="601" as="sourcePoint"/>
                        <mxPoint x="328.5" y="551" as="targetPoint"/>
                    </mxGeometry>
                </mxCell>
                <mxCell id="52" value="" style="endArrow=classic;html=1;fontSize=24;exitX=1;exitY=0.5;exitDx=0;exitDy=0;fontColor=#000000;strokeColor=#000000;" parent="1" edge="1">
                    <mxGeometry width="50" height="50" relative="1" as="geometry">
                        <mxPoint x="516.5" y="570" as="sourcePoint"/>
                        <mxPoint x="595.5" y="572" as="targetPoint"/>
                    </mxGeometry>
                </mxCell>
                <mxCell id="55" value="" style="endArrow=open;endFill=1;endSize=12;html=1;strokeColor=#000000;fontSize=24;fontColor=#000000;exitX=1;exitY=0.5;exitDx=0;exitDy=0;entryX=0.657;entryY=-0.036;entryDx=0;entryDy=0;entryPerimeter=0;" parent="1" target="45" edge="1">
                    <mxGeometry width="160" relative="1" as="geometry">
                        <mxPoint x="732.5" y="564.9999999999999" as="sourcePoint"/>
                        <mxPoint x="631.94" y="536.3199999999999" as="targetPoint"/>
                        <Array as="points">
                            <mxPoint x="766.5" y="565"/>
                            <mxPoint x="766.5" y="496"/>
                            <mxPoint x="732.5" y="496"/>
                            <mxPoint x="191" y="496"/>
                        </Array>
                    </mxGeometry>
                </mxCell>
                <mxCell id="56" value="50" style="ellipse;whiteSpace=wrap;html=1;aspect=fixed;fillColor=#FFFFFF;strokeColor=#000000;fontColor=#000000;fontSize=40;" vertex="1" parent="1">
                    <mxGeometry x="-513" y="1255" width="80" height="80" as="geometry"/>
                </mxCell>
                <mxCell id="57" value="25" style="ellipse;whiteSpace=wrap;html=1;aspect=fixed;fillColor=#FFFFFF;strokeColor=#000000;fontColor=#000000;fontSize=40;" vertex="1" parent="1">
                    <mxGeometry x="-670" y="1387" width="80" height="80" as="geometry"/>
                </mxCell>
                <mxCell id="58" value="75" style="ellipse;whiteSpace=wrap;html=1;aspect=fixed;fillColor=#FFFFFF;strokeColor=#000000;fontColor=#000000;fontSize=40;" vertex="1" parent="1">
                    <mxGeometry x="-365" y="1391" width="80" height="80" as="geometry"/>
                </mxCell>
                <mxCell id="59" value="12" style="ellipse;whiteSpace=wrap;html=1;aspect=fixed;fillColor=#FFFFFF;strokeColor=#000000;fontColor=#000000;fontSize=40;" vertex="1" parent="1">
                    <mxGeometry x="-809" y="1526" width="80" height="80" as="geometry"/>
                </mxCell>
                <mxCell id="60" value="35" style="ellipse;whiteSpace=wrap;html=1;aspect=fixed;fillColor=#FFFFFF;strokeColor=#000000;fontColor=#000000;fontSize=40;" vertex="1" parent="1">
                    <mxGeometry x="-557" y="1534" width="80" height="80" as="geometry"/>
                </mxCell>
                <mxCell id="61" value="30" style="ellipse;whiteSpace=wrap;html=1;aspect=fixed;fillColor=#FFFFFF;strokeColor=#000000;fontColor=#000000;fontSize=40;" vertex="1" parent="1">
                    <mxGeometry x="-652" y="1644" width="80" height="80" as="geometry"/>
                </mxCell>
                <mxCell id="62" value="40" style="ellipse;whiteSpace=wrap;html=1;aspect=fixed;fillColor=#FFFFFF;strokeColor=#000000;fontColor=#000000;fontSize=40;" vertex="1" parent="1">
                    <mxGeometry x="-477" y="1644" width="80" height="80" as="geometry"/>
                </mxCell>
                <mxCell id="63" value="65" style="ellipse;whiteSpace=wrap;html=1;aspect=fixed;fillColor=#FFFFFF;strokeColor=#000000;fontColor=#000000;fontSize=40;" vertex="1" parent="1">
                    <mxGeometry x="-407" y="1534" width="80" height="80" as="geometry"/>
                </mxCell>
                <mxCell id="64" value="85" style="ellipse;whiteSpace=wrap;html=1;aspect=fixed;fillColor=#FFFFFF;strokeColor=#000000;fontColor=#000000;fontSize=40;" vertex="1" parent="1">
                    <mxGeometry x="-261" y="1537" width="80" height="80" as="geometry"/>
                </mxCell>
                <mxCell id="65" value="" style="endArrow=none;html=1;fontSize=40;fontColor=#000000;strokeColor=#000000;strokeWidth=3;exitX=1;exitY=0;exitDx=0;exitDy=0;entryX=0.028;entryY=0.753;entryDx=0;entryDy=0;entryPerimeter=0;" edge="1" parent="1" source="57" target="56">
                    <mxGeometry width="50" height="50" relative="1" as="geometry">
                        <mxPoint x="-576" y="1383" as="sourcePoint"/>
                        <mxPoint x="-526" y="1333" as="targetPoint"/>
                    </mxGeometry>
                </mxCell>
                <mxCell id="66" value="" style="endArrow=none;html=1;fontSize=40;fontColor=#000000;strokeColor=#000000;strokeWidth=3;entryX=1;entryY=1;entryDx=0;entryDy=0;" edge="1" parent="1" source="58" target="56">
                    <mxGeometry width="50" height="50" relative="1" as="geometry">
                        <mxPoint x="-591.7157287525381" y="1408.7157287525379" as="sourcePoint"/>
                        <mxPoint x="-500.76" y="1325.24" as="targetPoint"/>
                    </mxGeometry>
                </mxCell>
                <mxCell id="67" value="" style="endArrow=none;html=1;fontSize=40;fontColor=#000000;strokeColor=#000000;strokeWidth=3;exitX=0;exitY=1;exitDx=0;exitDy=0;entryX=1;entryY=0;entryDx=0;entryDy=0;" edge="1" parent="1" source="57" target="59">
                    <mxGeometry width="50" height="50" relative="1" as="geometry">
                        <mxPoint x="-581.7157287525381" y="1418.7157287525379" as="sourcePoint"/>
                        <mxPoint x="-490.76" y="1335.24" as="targetPoint"/>
                    </mxGeometry>
                </mxCell>
                <mxCell id="68" value="" style="endArrow=none;html=1;fontSize=40;fontColor=#000000;strokeColor=#000000;strokeWidth=3;exitX=0.85;exitY=0.088;exitDx=0;exitDy=0;exitPerimeter=0;" edge="1" parent="1" source="61" target="60">
                    <mxGeometry width="50" height="50" relative="1" as="geometry">
                        <mxPoint x="-637.9957287525381" y="1672.4757287525379" as="sourcePoint"/>
                        <mxPoint x="-547.04" y="1589" as="targetPoint"/>
                    </mxGeometry>
                </mxCell>
                <mxCell id="69" value="" style="endArrow=none;html=1;fontSize=40;fontColor=#000000;strokeColor=#000000;strokeWidth=3;entryX=0.298;entryY=0.995;entryDx=0;entryDy=0;entryPerimeter=0;exitX=0.5;exitY=0;exitDx=0;exitDy=0;" edge="1" parent="1" source="63" target="58">
                    <mxGeometry width="50" height="50" relative="1" as="geometry">
                        <mxPoint x="-388.62" y="1551.76" as="sourcePoint"/>
                        <mxPoint x="-261.38" y="1402" as="targetPoint"/>
                    </mxGeometry>
                </mxCell>
                <mxCell id="70" value="" style="endArrow=none;html=1;fontSize=40;fontColor=#000000;strokeColor=#000000;strokeWidth=3;entryX=0.827;entryY=0.938;entryDx=0;entryDy=0;entryPerimeter=0;" edge="1" parent="1" target="58">
                    <mxGeometry width="50" height="50" relative="1" as="geometry">
                        <mxPoint x="-236" y="1532" as="sourcePoint"/>
                        <mxPoint x="-313.99572875255285" y="1463.0042712474472" as="targetPoint"/>
                    </mxGeometry>
                </mxCell>
                <mxCell id="71" value="" style="endArrow=none;html=1;fontSize=40;fontColor=#000000;strokeColor=#000000;strokeWidth=3;entryX=1;entryY=1;entryDx=0;entryDy=0;" edge="1" parent="1" source="60">
                    <mxGeometry width="50" height="50" relative="1" as="geometry">
                        <mxPoint x="-512.9983675063688" y="1544.9021980364134" as="sourcePoint"/>
                        <mxPoint x="-603.0357287525528" y="1464.0042712474472" as="targetPoint"/>
                    </mxGeometry>
                </mxCell>
                <mxCell id="72" value="" style="endArrow=none;html=1;fontSize=40;fontColor=#000000;strokeColor=#000000;strokeWidth=3;" edge="1" parent="1" source="62" target="60">
                    <mxGeometry width="50" height="50" relative="1" as="geometry">
                        <mxPoint x="-420.95836750636886" y="1669.9021980364134" as="sourcePoint"/>
                        <mxPoint x="-510.99572875255285" y="1589.0042712474472" as="targetPoint"/>
                    </mxGeometry>
                </mxCell>
                <mxCell id="73" value="二叉树" style="text;html=1;align=center;verticalAlign=middle;resizable=0;points=[];autosize=1;fontSize=40;fontColor=#000000;" vertex="1" parent="1">
                    <mxGeometry x="-552" y="1186" width="130" height="52" as="geometry"/>
                </mxCell>
                <mxCell id="75" value="跳表" style="text;html=1;align=center;verticalAlign=middle;resizable=0;points=[];autosize=1;fontSize=40;fontColor=#000000;" vertex="1" parent="1">
                    <mxGeometry x="626" y="1216" width="90" height="52" as="geometry"/>
                </mxCell>
                <mxCell id="76" value="" style="rounded=0;whiteSpace=wrap;html=1;strokeColor=#000000;fillColor=#FFFFFF;fontSize=40;fontColor=#000000;" vertex="1" parent="1">
                    <mxGeometry x="15" y="1331.5" width="120" height="449" as="geometry"/>
                </mxCell>
                <mxCell id="77" value="level" style="text;html=1;align=center;verticalAlign=middle;resizable=0;points=[];autosize=1;fontSize=100;fontColor=#000000;rotation=-90;strokeWidth=9;" vertex="1" parent="1">
                    <mxGeometry x="-38" y="1481" width="216" height="124" as="geometry"/>
                </mxCell>
                <mxCell id="79" value="" style="rounded=0;whiteSpace=wrap;html=1;strokeColor=#000000;fillColor=#FFFFFF;fontSize=40;fontColor=#000000;" vertex="1" parent="1">
                    <mxGeometry x="135" y="1333" width="120" height="446" as="geometry"/>
                </mxCell>
                <mxCell id="80" value="1" style="text;html=1;align=center;verticalAlign=middle;resizable=0;points=[];autosize=1;fontSize=100;fontColor=#000000;" vertex="1" parent="1">
                    <mxGeometry x="155" y="1661" width="66" height="124" as="geometry"/>
                </mxCell>
                <mxCell id="81" value="2" style="text;html=1;align=center;verticalAlign=middle;resizable=0;points=[];autosize=1;fontSize=100;fontColor=#000000;" vertex="1" parent="1">
                    <mxGeometry x="155" y="1547" width="66" height="124" as="geometry"/>
                </mxCell>
                <mxCell id="82" value="3" style="text;html=1;align=center;verticalAlign=middle;resizable=0;points=[];autosize=1;fontSize=100;fontColor=#000000;" vertex="1" parent="1">
                    <mxGeometry x="157" y="1436" width="66" height="124" as="geometry"/>
                </mxCell>
                <mxCell id="83" value="4" style="text;html=1;align=center;verticalAlign=middle;resizable=0;points=[];autosize=1;fontSize=100;fontColor=#000000;" vertex="1" parent="1">
                    <mxGeometry x="155" y="1330" width="66" height="124" as="geometry"/>
                </mxCell>
                <mxCell id="84" value="30" style="whiteSpace=wrap;html=1;aspect=fixed;strokeColor=#000000;strokeWidth=1;fillColor=#FFFFFF;fontSize=56;fontColor=#000000;" vertex="1" parent="1">
                    <mxGeometry x="264" y="1692" width="80" height="80" as="geometry"/>
                </mxCell>
                <mxCell id="85" value="30" style="whiteSpace=wrap;html=1;aspect=fixed;strokeColor=#000000;strokeWidth=1;fillColor=#FFFFFF;fontSize=56;fontColor=#000000;" vertex="1" parent="1">
                    <mxGeometry x="264" y="1342" width="80" height="80" as="geometry"/>
                </mxCell>
                <mxCell id="86" value="30" style="whiteSpace=wrap;html=1;aspect=fixed;strokeColor=#000000;strokeWidth=1;fillColor=#FFFFFF;fontSize=56;fontColor=#000000;" vertex="1" parent="1">
                    <mxGeometry x="261.5" y="1465" width="80" height="80" as="geometry"/>
                </mxCell>
                <mxCell id="87" value="30" style="whiteSpace=wrap;html=1;aspect=fixed;strokeColor=#000000;strokeWidth=1;fillColor=#FFFFFF;fontSize=56;fontColor=#000000;" vertex="1" parent="1">
                    <mxGeometry x="264" y="1581" width="80" height="80" as="geometry"/>
                </mxCell>
                <mxCell id="88" value="40" style="whiteSpace=wrap;html=1;aspect=fixed;strokeColor=#000000;strokeWidth=1;fillColor=#FFFFFF;fontSize=56;fontColor=#000000;" vertex="1" parent="1">
                    <mxGeometry x="414" y="1692" width="80" height="80" as="geometry"/>
                </mxCell>
                <mxCell id="89" value="50" style="whiteSpace=wrap;html=1;aspect=fixed;strokeColor=#000000;strokeWidth=1;fillColor=#FFFFFF;fontSize=56;fontColor=#000000;" vertex="1" parent="1">
                    <mxGeometry x="576.5" y="1691" width="80" height="80" as="geometry"/>
                </mxCell>
                <mxCell id="91" value="50" style="whiteSpace=wrap;html=1;aspect=fixed;strokeColor=#000000;strokeWidth=1;fillColor=#FFFFFF;fontSize=56;fontColor=#000000;" vertex="1" parent="1">
                    <mxGeometry x="574" y="1464" width="80" height="80" as="geometry"/>
                </mxCell>
                <mxCell id="92" value="50" style="whiteSpace=wrap;html=1;aspect=fixed;strokeColor=#000000;strokeWidth=1;fillColor=#FFFFFF;fontSize=56;fontColor=#000000;" vertex="1" parent="1">
                    <mxGeometry x="576.5" y="1580" width="80" height="80" as="geometry"/>
                </mxCell>
                <mxCell id="93" value="70" style="whiteSpace=wrap;html=1;aspect=fixed;strokeColor=#000000;strokeWidth=1;fillColor=#FFFFFF;fontSize=56;fontColor=#000000;" vertex="1" parent="1">
                    <mxGeometry x="873.5" y="1695" width="80" height="80" as="geometry"/>
                </mxCell>
                <mxCell id="94" value="70" style="whiteSpace=wrap;html=1;aspect=fixed;strokeColor=#000000;strokeWidth=1;fillColor=#FFFFFF;fontSize=56;fontColor=#000000;" vertex="1" parent="1">
                    <mxGeometry x="873.5" y="1345" width="80" height="80" as="geometry"/>
                </mxCell>
                <mxCell id="95" value="70" style="whiteSpace=wrap;html=1;aspect=fixed;strokeColor=#000000;strokeWidth=1;fillColor=#FFFFFF;fontSize=56;fontColor=#000000;" vertex="1" parent="1">
                    <mxGeometry x="871" y="1468" width="80" height="80" as="geometry"/>
                </mxCell>
                <mxCell id="96" value="70" style="whiteSpace=wrap;html=1;aspect=fixed;strokeColor=#000000;strokeWidth=1;fillColor=#FFFFFF;fontSize=56;fontColor=#000000;" vertex="1" parent="1">
                    <mxGeometry x="873.5" y="1584" width="80" height="80" as="geometry"/>
                </mxCell>
                <mxCell id="97" value="90" style="whiteSpace=wrap;html=1;aspect=fixed;strokeColor=#000000;strokeWidth=1;fillColor=#FFFFFF;fontSize=56;fontColor=#000000;" vertex="1" parent="1">
                    <mxGeometry x="1167.5" y="1692" width="80" height="80" as="geometry"/>
                </mxCell>
                <mxCell id="99" value="90" style="whiteSpace=wrap;html=1;aspect=fixed;strokeColor=#000000;strokeWidth=1;fillColor=#FFFFFF;fontSize=56;fontColor=#000000;" vertex="1" parent="1">
                    <mxGeometry x="1165" y="1473.5" width="80" height="80" as="geometry"/>
                </mxCell>
                <mxCell id="100" value="90" style="whiteSpace=wrap;html=1;aspect=fixed;strokeColor=#000000;strokeWidth=1;fillColor=#FFFFFF;fontSize=56;fontColor=#000000;" vertex="1" parent="1">
                    <mxGeometry x="1167.5" y="1589.5" width="80" height="80" as="geometry"/>
                </mxCell>
                <mxCell id="101" value="60" style="whiteSpace=wrap;html=1;aspect=fixed;strokeColor=#000000;strokeWidth=1;fillColor=#FFFFFF;fontSize=56;fontColor=#000000;" vertex="1" parent="1">
                    <mxGeometry x="725" y="1692" width="80" height="80" as="geometry"/>
                </mxCell>
                <mxCell id="102" value="80" style="whiteSpace=wrap;html=1;aspect=fixed;strokeColor=#000000;strokeWidth=1;fillColor=#FFFFFF;fontSize=56;fontColor=#000000;" vertex="1" parent="1">
                    <mxGeometry x="1024" y="1691" width="80" height="80" as="geometry"/>
                </mxCell>
                <mxCell id="103" value="60" style="whiteSpace=wrap;html=1;aspect=fixed;strokeColor=#000000;strokeWidth=1;fillColor=#FFFFFF;fontSize=56;fontColor=#000000;" vertex="1" parent="1">
                    <mxGeometry x="725" y="1584" width="80" height="80" as="geometry"/>
                </mxCell>
                <mxCell id="105" value="&lt;font style=&quot;font-size: 25px&quot;&gt;ＮＩＬ&lt;/font&gt;" style="whiteSpace=wrap;html=1;aspect=fixed;strokeColor=#000000;strokeWidth=1;fillColor=#FFFFFF;fontSize=56;fontColor=#000000;" vertex="1" parent="1">
                    <mxGeometry x="1356" y="1345" width="80" height="80" as="geometry"/>
                </mxCell>
                <mxCell id="108" value="&lt;font style=&quot;font-size: 25px&quot;&gt;ＮＩＬ&lt;/font&gt;" style="whiteSpace=wrap;html=1;aspect=fixed;strokeColor=#000000;strokeWidth=1;fillColor=#FFFFFF;fontSize=56;fontColor=#000000;" vertex="1" parent="1">
                    <mxGeometry x="1356" y="1587" width="80" height="80" as="geometry"/>
                </mxCell>
                <mxCell id="109" value="&lt;font style=&quot;font-size: 25px&quot;&gt;ＮＩＬ&lt;/font&gt;" style="whiteSpace=wrap;html=1;aspect=fixed;strokeColor=#000000;strokeWidth=1;fillColor=#FFFFFF;fontSize=56;fontColor=#000000;" vertex="1" parent="1">
                    <mxGeometry x="1353.5" y="1473.5" width="80" height="80" as="geometry"/>
                </mxCell>
                <mxCell id="110" value="&lt;font style=&quot;font-size: 25px&quot;&gt;ＮＩＬ&lt;/font&gt;" style="whiteSpace=wrap;html=1;aspect=fixed;strokeColor=#000000;strokeWidth=1;fillColor=#FFFFFF;fontSize=56;fontColor=#000000;" vertex="1" parent="1">
                    <mxGeometry x="1356" y="1700.5" width="80" height="80" as="geometry"/>
                </mxCell>
                <mxCell id="111" value="" style="endArrow=classic;html=1;strokeColor=#000000;strokeWidth=3;fontSize=56;fontColor=#000000;" edge="1" parent="1">
                    <mxGeometry width="50" height="50" relative="1" as="geometry">
                        <mxPoint x="984" y="1620" as="sourcePoint"/>
                        <mxPoint x="1136.5" y="1620" as="targetPoint"/>
                    </mxGeometry>
                </mxCell>
                <mxCell id="112" value="" style="endArrow=classic;html=1;strokeColor=#000000;strokeWidth=3;fontSize=56;fontColor=#000000;" edge="1" parent="1">
                    <mxGeometry width="50" height="50" relative="1" as="geometry">
                        <mxPoint x="1265" y="1730.41" as="sourcePoint"/>
                        <mxPoint x="1325.5" y="1730.41" as="targetPoint"/>
                    </mxGeometry>
                </mxCell>
                <mxCell id="113" value="" style="endArrow=classic;html=1;strokeColor=#000000;strokeWidth=3;fontSize=56;fontColor=#000000;" edge="1" parent="1">
                    <mxGeometry width="50" height="50" relative="1" as="geometry">
                        <mxPoint x="1104.5" y="1744" as="sourcePoint"/>
                        <mxPoint x="1165" y="1744" as="targetPoint"/>
                    </mxGeometry>
                </mxCell>
                <mxCell id="114" value="" style="endArrow=classic;html=1;strokeColor=#000000;strokeWidth=3;fontSize=56;fontColor=#000000;" edge="1" parent="1">
                    <mxGeometry width="50" height="50" relative="1" as="geometry">
                        <mxPoint x="956" y="1742" as="sourcePoint"/>
                        <mxPoint x="1016.5" y="1742" as="targetPoint"/>
                    </mxGeometry>
                </mxCell>
                <mxCell id="115" value="" style="endArrow=classic;html=1;strokeColor=#000000;strokeWidth=3;fontSize=56;fontColor=#000000;" edge="1" parent="1">
                    <mxGeometry width="50" height="50" relative="1" as="geometry">
                        <mxPoint x="810.5" y="1734" as="sourcePoint"/>
                        <mxPoint x="871" y="1734" as="targetPoint"/>
                    </mxGeometry>
                </mxCell>
                <mxCell id="116" value="" style="endArrow=classic;html=1;strokeColor=#000000;strokeWidth=3;fontSize=56;fontColor=#000000;" edge="1" parent="1">
                    <mxGeometry width="50" height="50" relative="1" as="geometry">
                        <mxPoint x="659.5" y="1734" as="sourcePoint"/>
                        <mxPoint x="720" y="1734" as="targetPoint"/>
                    </mxGeometry>
                </mxCell>
                <mxCell id="117" value="" style="endArrow=classic;html=1;strokeColor=#000000;strokeWidth=3;fontSize=56;fontColor=#000000;" edge="1" parent="1">
                    <mxGeometry width="50" height="50" relative="1" as="geometry">
                        <mxPoint x="499" y="1739.5" as="sourcePoint"/>
                        <mxPoint x="559.5" y="1739.5" as="targetPoint"/>
                    </mxGeometry>
                </mxCell>
                <mxCell id="118" value="" style="endArrow=classic;html=1;strokeColor=#000000;strokeWidth=3;fontSize=56;fontColor=#000000;" edge="1" parent="1">
                    <mxGeometry width="50" height="50" relative="1" as="geometry">
                        <mxPoint x="351" y="1739.5" as="sourcePoint"/>
                        <mxPoint x="411.5" y="1739.5" as="targetPoint"/>
                    </mxGeometry>
                </mxCell>
                <mxCell id="119" value="" style="endArrow=classic;html=1;strokeColor=#000000;strokeWidth=3;fontSize=56;fontColor=#000000;" edge="1" parent="1">
                    <mxGeometry width="50" height="50" relative="1" as="geometry">
                        <mxPoint x="686" y="1507" as="sourcePoint"/>
                        <mxPoint x="838.5" y="1507" as="targetPoint"/>
                    </mxGeometry>
                </mxCell>
                <mxCell id="120" value="" style="endArrow=classic;html=1;strokeColor=#000000;strokeWidth=3;fontSize=56;fontColor=#000000;" edge="1" parent="1">
                    <mxGeometry width="50" height="50" relative="1" as="geometry">
                        <mxPoint x="386" y="1504" as="sourcePoint"/>
                        <mxPoint x="538.5" y="1504" as="targetPoint"/>
                    </mxGeometry>
                </mxCell>
                <mxCell id="121" value="" style="endArrow=classic;html=1;strokeColor=#000000;strokeWidth=3;fontSize=56;fontColor=#000000;" edge="1" parent="1">
                    <mxGeometry width="50" height="50" relative="1" as="geometry">
                        <mxPoint x="384" y="1619" as="sourcePoint"/>
                        <mxPoint x="536.5" y="1619" as="targetPoint"/>
                    </mxGeometry>
                </mxCell>
                <mxCell id="122" value="" style="endArrow=classic;html=1;strokeColor=#000000;strokeWidth=3;fontSize=56;fontColor=#000000;" edge="1" parent="1">
                    <mxGeometry width="50" height="50" relative="1" as="geometry">
                        <mxPoint x="368" y="1393" as="sourcePoint"/>
                        <mxPoint x="860" y="1393" as="targetPoint"/>
                    </mxGeometry>
                </mxCell>
                <mxCell id="123" value="" style="endArrow=classic;html=1;strokeColor=#000000;strokeWidth=3;fontSize=56;fontColor=#000000;" edge="1" parent="1">
                    <mxGeometry width="50" height="50" relative="1" as="geometry">
                        <mxPoint x="992" y="1507" as="sourcePoint"/>
                        <mxPoint x="1144.5" y="1507" as="targetPoint"/>
                    </mxGeometry>
                </mxCell>
                <mxCell id="124" value="" style="endArrow=classic;html=1;strokeColor=#000000;strokeWidth=3;fontSize=56;fontColor=#000000;" edge="1" parent="1">
                    <mxGeometry width="50" height="50" relative="1" as="geometry">
                        <mxPoint x="973.5" y="1384" as="sourcePoint"/>
                        <mxPoint x="1344" y="1384" as="targetPoint"/>
                    </mxGeometry>
                </mxCell>
                <mxCell id="125" value="" style="endArrow=classic;html=1;strokeColor=#000000;strokeWidth=3;fontSize=56;fontColor=#000000;" edge="1" parent="1">
                    <mxGeometry width="50" height="50" relative="1" as="geometry">
                        <mxPoint x="810.5" y="1622.9999999999998" as="sourcePoint"/>
                        <mxPoint x="871" y="1622.9999999999998" as="targetPoint"/>
                    </mxGeometry>
                </mxCell>
                <mxCell id="126" value="" style="endArrow=classic;html=1;strokeColor=#000000;strokeWidth=3;fontSize=56;fontColor=#000000;" edge="1" parent="1">
                    <mxGeometry width="50" height="50" relative="1" as="geometry">
                        <mxPoint x="1269" y="1509.9999999999998" as="sourcePoint"/>
                        <mxPoint x="1329.5" y="1509.9999999999998" as="targetPoint"/>
                    </mxGeometry>
                </mxCell>
                <mxCell id="127" value="" style="endArrow=classic;html=1;strokeColor=#000000;strokeWidth=3;fontSize=56;fontColor=#000000;" edge="1" parent="1">
                    <mxGeometry width="50" height="50" relative="1" as="geometry">
                        <mxPoint x="1265" y="1633.9999999999998" as="sourcePoint"/>
                        <mxPoint x="1325.5" y="1633.9999999999998" as="targetPoint"/>
                    </mxGeometry>
                </mxCell>
                <mxCell id="128" value="" style="endArrow=classic;html=1;strokeColor=#000000;strokeWidth=3;fontSize=56;fontColor=#000000;" edge="1" parent="1">
                    <mxGeometry width="50" height="50" relative="1" as="geometry">
                        <mxPoint x="659.5" y="1622.9999999999998" as="sourcePoint"/>
                        <mxPoint x="720" y="1622.9999999999998" as="targetPoint"/>
                    </mxGeometry>
                </mxCell>
                <mxCell id="129" value="平衡二叉树" style="text;html=1;align=center;verticalAlign=middle;resizable=0;points=[];autosize=1;fontSize=56;fontColor=#000000;" vertex="1" parent="1">
                    <mxGeometry x="173" y="1935" width="290" height="71" as="geometry"/>
                </mxCell>
                <mxCell id="130" value="Ｌ－Ｌ型" style="text;html=1;align=center;verticalAlign=middle;resizable=0;points=[];autosize=1;fontSize=56;fontColor=#000000;" vertex="1" parent="1">
                    <mxGeometry x="-788" y="2071" width="234" height="71" as="geometry"/>
                </mxCell>
                <mxCell id="131" value="50" style="ellipse;whiteSpace=wrap;html=1;aspect=fixed;fillColor=#FFFFFF;strokeColor=#000000;fontColor=#000000;fontSize=40;" vertex="1" parent="1">
                    <mxGeometry x="-472" y="2210" width="80" height="80" as="geometry"/>
                </mxCell>
                <mxCell id="132" value="12" style="ellipse;whiteSpace=wrap;html=1;aspect=fixed;fillColor=#FFFFFF;strokeColor=#000000;fontColor=#000000;fontSize=40;" vertex="1" parent="1">
                    <mxGeometry x="-697" y="2515" width="80" height="80" as="geometry"/>
                </mxCell>
                <mxCell id="133" value="25" style="ellipse;whiteSpace=wrap;html=1;aspect=fixed;fillColor=#FFFFFF;strokeColor=#000000;fontColor=#000000;fontSize=40;" vertex="1" parent="1">
                    <mxGeometry x="-582" y="2360" width="80" height="80" as="geometry"/>
                </mxCell>
                <mxCell id="134" value="" style="endArrow=none;html=1;fontSize=40;fontColor=#000000;strokeColor=#000000;strokeWidth=3;exitX=0.85;exitY=0.088;exitDx=0;exitDy=0;exitPerimeter=0;" edge="1" parent="1">
                    <mxGeometry width="50" height="50" relative="1" as="geometry">
                        <mxPoint x="-512.75" y="2357.86" as="sourcePoint"/>
                        <mxPoint x="-471.9971485969702" y="2311.0042208865157" as="targetPoint"/>
                    </mxGeometry>
                </mxCell>
                <mxCell id="135" value="" style="endArrow=none;html=1;fontSize=40;fontColor=#000000;strokeColor=#000000;strokeWidth=3;exitX=0.85;exitY=0.088;exitDx=0;exitDy=0;exitPerimeter=0;" edge="1" parent="1">
                    <mxGeometry width="50" height="50" relative="1" as="geometry">
                        <mxPoint x="-621" y="2488.86" as="sourcePoint"/>
                        <mxPoint x="-580.2471485969702" y="2442.0042208865157" as="targetPoint"/>
                    </mxGeometry>
                </mxCell>
                <mxCell id="136" value="" style="shape=flexArrow;endArrow=classic;html=1;strokeColor=#000000;strokeWidth=3;fontSize=56;fontColor=#000000;width=11.666666666666668;endSize=5.366666666666667;" edge="1" parent="1">
                    <mxGeometry width="50" height="50" relative="1" as="geometry">
                        <mxPoint x="-385" y="2389" as="sourcePoint"/>
                        <mxPoint x="-257" y="2389" as="targetPoint"/>
                    </mxGeometry>
                </mxCell>
                <mxCell id="137" value="50" style="ellipse;whiteSpace=wrap;html=1;aspect=fixed;fillColor=#FFFFFF;strokeColor=#000000;fontColor=#000000;fontSize=40;" vertex="1" parent="1">
                    <mxGeometry x="-42" y="2440" width="80" height="80" as="geometry"/>
                </mxCell>
                <mxCell id="138" value="12" style="ellipse;whiteSpace=wrap;html=1;aspect=fixed;fillColor=#FFFFFF;strokeColor=#000000;fontColor=#000000;fontSize=40;" vertex="1" parent="1">
                    <mxGeometry x="-264" y="2440" width="80" height="80" as="geometry"/>
                </mxCell>
                <mxCell id="139" value="25" style="ellipse;whiteSpace=wrap;html=1;aspect=fixed;fillColor=#FFFFFF;strokeColor=#000000;fontColor=#000000;fontSize=40;" vertex="1" parent="1">
                    <mxGeometry x="-142" y="2278" width="80" height="80" as="geometry"/>
                </mxCell>
                <mxCell id="140" value="" style="endArrow=none;html=1;fontSize=40;fontColor=#000000;strokeColor=#000000;strokeWidth=3;" edge="1" parent="1">
                    <mxGeometry width="50" height="50" relative="1" as="geometry">
                        <mxPoint x="-66" y="2373" as="sourcePoint"/>
                        <mxPoint x="-34" y="2433" as="targetPoint"/>
                    </mxGeometry>
                </mxCell>
                <mxCell id="141" value="" style="endArrow=none;html=1;fontSize=40;fontColor=#000000;strokeColor=#000000;strokeWidth=3;exitX=0.85;exitY=0.088;exitDx=0;exitDy=0;exitPerimeter=0;" edge="1" parent="1">
                    <mxGeometry width="50" height="50" relative="1" as="geometry">
                        <mxPoint x="-188.00000000000023" y="2413.86" as="sourcePoint"/>
                        <mxPoint x="-147.24714859697042" y="2367.0042208865157" as="targetPoint"/>
                    </mxGeometry>
                </mxCell>
                <mxCell id="142" value="50" style="ellipse;whiteSpace=wrap;html=1;aspect=fixed;fillColor=#FFFFFF;strokeColor=#000000;fontColor=#000000;fontSize=40;" vertex="1" parent="1">
                    <mxGeometry x="-1206" y="2253" width="80" height="80" as="geometry"/>
                </mxCell>
                <mxCell id="143" value="25" style="ellipse;whiteSpace=wrap;html=1;aspect=fixed;fillColor=#FFFFFF;strokeColor=#000000;fontColor=#000000;fontSize=40;" vertex="1" parent="1">
                    <mxGeometry x="-1316" y="2403" width="80" height="80" as="geometry"/>
                </mxCell>
                <mxCell id="144" value="" style="endArrow=none;html=1;fontSize=40;fontColor=#000000;strokeColor=#000000;strokeWidth=3;exitX=0.85;exitY=0.088;exitDx=0;exitDy=0;exitPerimeter=0;" edge="1" parent="1">
                    <mxGeometry width="50" height="50" relative="1" as="geometry">
                        <mxPoint x="-1246.75" y="2400.86" as="sourcePoint"/>
                        <mxPoint x="-1205.99714859697" y="2354.0042208865157" as="targetPoint"/>
                    </mxGeometry>
                </mxCell>
                <mxCell id="145" value="" style="shape=flexArrow;endArrow=classic;html=1;strokeColor=#000000;strokeWidth=3;fontSize=56;fontColor=#000000;width=11.666666666666668;endSize=5.366666666666667;" edge="1" parent="1">
                    <mxGeometry width="50" height="50" relative="1" as="geometry">
                        <mxPoint x="-1121" y="2390" as="sourcePoint"/>
                        <mxPoint x="-624" y="2385" as="targetPoint"/>
                    </mxGeometry>
                </mxCell>
                <mxCell id="146" value="左子树新增左节点12" style="text;html=1;align=center;verticalAlign=middle;resizable=0;points=[];autosize=1;fontSize=56;fontColor=#000000;" vertex="1" parent="1">
                    <mxGeometry x="-1118" y="2293" width="520" height="71" as="geometry"/>
                </mxCell>
                <mxCell id="165" value="50" style="ellipse;whiteSpace=wrap;html=1;aspect=fixed;fillColor=#FFFFFF;strokeColor=#000000;fontColor=#000000;fontSize=40;" vertex="1" parent="1">
                    <mxGeometry x="-1070" y="2816" width="80" height="80" as="geometry"/>
                </mxCell>
                <mxCell id="166" value="25" style="ellipse;whiteSpace=wrap;html=1;aspect=fixed;fillColor=#FFFFFF;strokeColor=#000000;fontColor=#000000;fontSize=40;" vertex="1" parent="1">
                    <mxGeometry x="-1227" y="2948" width="80" height="80" as="geometry"/>
                </mxCell>
                <mxCell id="167" value="75" style="ellipse;whiteSpace=wrap;html=1;aspect=fixed;fillColor=#FFFFFF;strokeColor=#000000;fontColor=#000000;fontSize=40;" vertex="1" parent="1">
                    <mxGeometry x="-922" y="2952" width="80" height="80" as="geometry"/>
                </mxCell>
                <mxCell id="168" value="12" style="ellipse;whiteSpace=wrap;html=1;aspect=fixed;fillColor=#FFFFFF;strokeColor=#000000;fontColor=#000000;fontSize=40;" vertex="1" parent="1">
                    <mxGeometry x="-1366" y="3087" width="80" height="80" as="geometry"/>
                </mxCell>
                <mxCell id="169" value="35" style="ellipse;whiteSpace=wrap;html=1;aspect=fixed;fillColor=#FFFFFF;strokeColor=#000000;fontColor=#000000;fontSize=40;" vertex="1" parent="1">
                    <mxGeometry x="-1114" y="3095" width="80" height="80" as="geometry"/>
                </mxCell>
                <mxCell id="174" value="" style="endArrow=none;html=1;fontSize=40;fontColor=#000000;strokeColor=#000000;strokeWidth=3;exitX=1;exitY=0;exitDx=0;exitDy=0;entryX=0.028;entryY=0.753;entryDx=0;entryDy=0;entryPerimeter=0;" edge="1" parent="1" source="166" target="165">
                    <mxGeometry width="50" height="50" relative="1" as="geometry">
                        <mxPoint x="-1133" y="2944" as="sourcePoint"/>
                        <mxPoint x="-1083" y="2894" as="targetPoint"/>
                    </mxGeometry>
                </mxCell>
                <mxCell id="175" value="" style="endArrow=none;html=1;fontSize=40;fontColor=#000000;strokeColor=#000000;strokeWidth=3;entryX=1;entryY=1;entryDx=0;entryDy=0;" edge="1" parent="1" source="167" target="165">
                    <mxGeometry width="50" height="50" relative="1" as="geometry">
                        <mxPoint x="-1148.715728752538" y="2969.715728752538" as="sourcePoint"/>
                        <mxPoint x="-1057.76" y="2886.24" as="targetPoint"/>
                    </mxGeometry>
                </mxCell>
                <mxCell id="176" value="" style="endArrow=none;html=1;fontSize=40;fontColor=#000000;strokeColor=#000000;strokeWidth=3;exitX=0;exitY=1;exitDx=0;exitDy=0;entryX=1;entryY=0;entryDx=0;entryDy=0;" edge="1" parent="1" source="166" target="168">
                    <mxGeometry width="50" height="50" relative="1" as="geometry">
                        <mxPoint x="-1138.715728752538" y="2979.715728752538" as="sourcePoint"/>
                        <mxPoint x="-1047.76" y="2896.24" as="targetPoint"/>
                    </mxGeometry>
                </mxCell>
                <mxCell id="180" value="" style="endArrow=none;html=1;fontSize=40;fontColor=#000000;strokeColor=#000000;strokeWidth=3;entryX=1;entryY=1;entryDx=0;entryDy=0;" edge="1" parent="1" source="169">
                    <mxGeometry width="50" height="50" relative="1" as="geometry">
                        <mxPoint x="-1069.9983675063688" y="3105.902198036413" as="sourcePoint"/>
                        <mxPoint x="-1160.035728752553" y="3025.004271247447" as="targetPoint"/>
                    </mxGeometry>
                </mxCell>
                <mxCell id="183" value="50" style="ellipse;whiteSpace=wrap;html=1;aspect=fixed;fillColor=#FFFFFF;strokeColor=#000000;fontColor=#000000;fontSize=40;" vertex="1" parent="1">
                    <mxGeometry x="97" y="2738" width="80" height="80" as="geometry"/>
                </mxCell>
                <mxCell id="184" value="25" style="ellipse;whiteSpace=wrap;html=1;aspect=fixed;fillColor=#FFFFFF;strokeColor=#000000;fontColor=#000000;fontSize=40;" vertex="1" parent="1">
                    <mxGeometry x="-60" y="2870" width="80" height="80" as="geometry"/>
                </mxCell>
                <mxCell id="185" value="75" style="ellipse;whiteSpace=wrap;html=1;aspect=fixed;fillColor=#FFFFFF;strokeColor=#000000;fontColor=#000000;fontSize=40;" vertex="1" parent="1">
                    <mxGeometry x="245" y="2874" width="80" height="80" as="geometry"/>
                </mxCell>
                <mxCell id="186" value="12" style="ellipse;whiteSpace=wrap;html=1;aspect=fixed;fillColor=#FFFFFF;strokeColor=#000000;fontColor=#000000;fontSize=40;" vertex="1" parent="1">
                    <mxGeometry x="-199" y="3009" width="80" height="80" as="geometry"/>
                </mxCell>
                <mxCell id="187" value="35" style="ellipse;whiteSpace=wrap;html=1;aspect=fixed;fillColor=#FFFFFF;strokeColor=#000000;fontColor=#000000;fontSize=40;" vertex="1" parent="1">
                    <mxGeometry x="53" y="3017" width="80" height="80" as="geometry"/>
                </mxCell>
                <mxCell id="188" value="10" style="ellipse;whiteSpace=wrap;html=1;aspect=fixed;fillColor=#FFFFFF;strokeColor=#000000;fontColor=#000000;fontSize=40;" vertex="1" parent="1">
                    <mxGeometry x="-342" y="3177" width="80" height="80" as="geometry"/>
                </mxCell>
                <mxCell id="189" value="" style="endArrow=none;html=1;fontSize=40;fontColor=#000000;strokeColor=#000000;strokeWidth=3;exitX=1;exitY=0;exitDx=0;exitDy=0;entryX=0.028;entryY=0.753;entryDx=0;entryDy=0;entryPerimeter=0;" edge="1" parent="1" source="184" target="183">
                    <mxGeometry width="50" height="50" relative="1" as="geometry">
                        <mxPoint x="34" y="2866" as="sourcePoint"/>
                        <mxPoint x="84" y="2816" as="targetPoint"/>
                    </mxGeometry>
                </mxCell>
                <mxCell id="190" value="" style="endArrow=none;html=1;fontSize=40;fontColor=#000000;strokeColor=#000000;strokeWidth=3;entryX=1;entryY=1;entryDx=0;entryDy=0;" edge="1" parent="1" source="185" target="183">
                    <mxGeometry width="50" height="50" relative="1" as="geometry">
                        <mxPoint x="18.284271247461902" y="2891.715728752538" as="sourcePoint"/>
                        <mxPoint x="109.24000000000001" y="2808.24" as="targetPoint"/>
                    </mxGeometry>
                </mxCell>
                <mxCell id="191" value="" style="endArrow=none;html=1;fontSize=40;fontColor=#000000;strokeColor=#000000;strokeWidth=3;exitX=0;exitY=1;exitDx=0;exitDy=0;entryX=1;entryY=0;entryDx=0;entryDy=0;" edge="1" parent="1" source="184" target="186">
                    <mxGeometry width="50" height="50" relative="1" as="geometry">
                        <mxPoint x="28.284271247461902" y="2901.715728752538" as="sourcePoint"/>
                        <mxPoint x="119.24000000000001" y="2818.24" as="targetPoint"/>
                    </mxGeometry>
                </mxCell>
                <mxCell id="192" value="" style="endArrow=none;html=1;fontSize=40;fontColor=#000000;strokeColor=#000000;strokeWidth=3;exitX=0.85;exitY=0.088;exitDx=0;exitDy=0;exitPerimeter=0;entryX=0;entryY=1;entryDx=0;entryDy=0;" edge="1" parent="1" source="188" target="186">
                    <mxGeometry width="50" height="50" relative="1" as="geometry">
                        <mxPoint x="-27.99572875253807" y="3155.475728752538" as="sourcePoint"/>
                        <mxPoint x="62.960000000000036" y="3072" as="targetPoint"/>
                    </mxGeometry>
                </mxCell>
                <mxCell id="193" value="" style="endArrow=none;html=1;fontSize=40;fontColor=#000000;strokeColor=#000000;strokeWidth=3;entryX=1;entryY=1;entryDx=0;entryDy=0;" edge="1" parent="1" source="187">
                    <mxGeometry width="50" height="50" relative="1" as="geometry">
                        <mxPoint x="97.00163249363118" y="3027.902198036413" as="sourcePoint"/>
                        <mxPoint x="6.964271247446959" y="2947.004271247447" as="targetPoint"/>
                    </mxGeometry>
                </mxCell>
                <mxCell id="194" value="" style="shape=flexArrow;endArrow=classic;html=1;strokeColor=#000000;strokeWidth=3;fontSize=56;fontColor=#000000;width=11.666666666666668;endSize=5.366666666666667;" edge="1" parent="1">
                    <mxGeometry width="50" height="50" relative="1" as="geometry">
                        <mxPoint x="-831.9999999999995" y="3019.2500000000005" as="sourcePoint"/>
                        <mxPoint x="-362" y="3019" as="targetPoint"/>
                    </mxGeometry>
                </mxCell>
                <mxCell id="195" value="&lt;span style=&quot;color: rgba(0 , 0 , 0 , 0) ; font-family: monospace ; font-size: 0px&quot;&gt;%3CmxGraphModel%3E%3Croot%3E%3CmxCell%20id%3D%220%22%2F%3E%3CmxCell%20id%3D%221%22%20parent%3D%220%22%2F%3E%3CmxCell%20id%3D%222%22%20value%3D%22%E5%B7%A6%E5%AD%90%E6%A0%91%E6%96%B0%E5%A2%9E%E5%B7%A6%E8%8A%82%E7%82%B912%22%20style%3D%22text%3Bhtml%3D1%3Balign%3Dcenter%3BverticalAlign%3Dmiddle%3Bresizable%3D0%3Bpoints%3D%5B%5D%3Bautosize%3D1%3BfontSize%3D56%3BfontColor%3D%23000000%3B%22%20vertex%3D%221%22%20parent%3D%221%22%3E%3CmxGeometry%20x%3D%22-1118%22%20y%3D%222293%22%20width%3D%22520%22%20height%3D%2271%22%20as%3D%22geometry%22%2F%3E%3C%2FmxCell%3E%3C%2Froot%3E%3C%2FmxGraphModel%3E&lt;/span&gt;" style="text;html=1;align=center;verticalAlign=middle;resizable=0;points=[];autosize=1;fontSize=56;fontColor=#000000;" vertex="1" parent="1">
                    <mxGeometry x="-663" y="2914.25" width="10" height="91" as="geometry"/>
                </mxCell>
                <mxCell id="291" value="&lt;span style=&quot;color: rgba(0 , 0 , 0 , 0) ; font-family: monospace ; font-size: 0px&quot;&gt;%3CmxGraphModel%3E%3Croot%3E%3CmxCell%20id%3D%220%22%2F%3E%3CmxCell%20id%3D%221%22%20parent%3D%220%22%2F%3E%3CmxCell%20id%3D%222%22%20value%3D%22%E5%B7%A6%E5%AD%90%E6%A0%91%E6%96%B0%E5%A2%9E%E5%B7%A6%E8%8A%82%E7%82%B912%22%20style%3D%22text%3Bhtml%3D1%3Balign%3Dcenter%3BverticalAlign%3Dmiddle%3Bresizable%3D0%3Bpoints%3D%5B%5D%3Bautosize%3D1%3BfontSize%3D56%3BfontColor%3D%23000000%3B%22%20vertex%3D%221%22%20parent%3D%221%22%3E%3CmxGeometry%20x%3D%22-1118%22%20y%3D%222293%22%20width%3D%22520%22%20height%3D%2271%22%20as%3D%22geometry%22%2F%3E%3C%2FmxCell%3E%3C%2Froot%3E%3C%2FmxGraphModel%3E&lt;/span&gt;" style="text;html=1;align=center;verticalAlign=middle;resizable=0;points=[];autosize=1;fontSize=56;fontColor=#000000;" vertex="1" parent="1">
                    <mxGeometry x="-663" y="2743.25" width="10" height="91" as="geometry"/>
                </mxCell>
                <mxCell id="207" value="50" style="ellipse;whiteSpace=wrap;html=1;aspect=fixed;fillColor=#FFFFFF;strokeColor=#000000;fontColor=#000000;fontSize=40;" vertex="1" parent="1">
                    <mxGeometry x="961" y="2896" width="80" height="80" as="geometry"/>
                </mxCell>
                <mxCell id="208" value="25" style="ellipse;whiteSpace=wrap;html=1;aspect=fixed;fillColor=#FFFFFF;strokeColor=#000000;fontColor=#000000;fontSize=40;" vertex="1" parent="1">
                    <mxGeometry x="820.5" y="2775" width="80" height="80" as="geometry"/>
                </mxCell>
                <mxCell id="209" value="75" style="ellipse;whiteSpace=wrap;html=1;aspect=fixed;fillColor=#FFFFFF;strokeColor=#000000;fontColor=#000000;fontSize=40;" vertex="1" parent="1">
                    <mxGeometry x="1093" y="3056" width="80" height="80" as="geometry"/>
                </mxCell>
                <mxCell id="210" value="12" style="ellipse;whiteSpace=wrap;html=1;aspect=fixed;fillColor=#FFFFFF;strokeColor=#000000;fontColor=#000000;fontSize=40;" vertex="1" parent="1">
                    <mxGeometry x="681.5" y="2914" width="80" height="80" as="geometry"/>
                </mxCell>
                <mxCell id="211" value="35" style="ellipse;whiteSpace=wrap;html=1;aspect=fixed;fillColor=#FFFFFF;strokeColor=#000000;fontColor=#000000;fontSize=40;" vertex="1" parent="1">
                    <mxGeometry x="830.5" y="3049" width="80" height="80" as="geometry"/>
                </mxCell>
                <mxCell id="212" value="10" style="ellipse;whiteSpace=wrap;html=1;aspect=fixed;fillColor=#FFFFFF;strokeColor=#000000;fontColor=#000000;fontSize=40;" vertex="1" parent="1">
                    <mxGeometry x="566" y="3035" width="80" height="80" as="geometry"/>
                </mxCell>
                <mxCell id="213" value="" style="endArrow=none;html=1;fontSize=40;fontColor=#000000;strokeColor=#000000;strokeWidth=3;" edge="1" parent="1" source="208">
                    <mxGeometry width="50" height="50" relative="1" as="geometry">
                        <mxPoint x="914.5" y="2771" as="sourcePoint"/>
                        <mxPoint x="958" y="2903" as="targetPoint"/>
                    </mxGeometry>
                </mxCell>
                <mxCell id="214" value="" style="endArrow=none;html=1;fontSize=40;fontColor=#000000;strokeColor=#000000;strokeWidth=3;entryX=1;entryY=1;entryDx=0;entryDy=0;" edge="1" parent="1" source="209" target="207">
                    <mxGeometry width="50" height="50" relative="1" as="geometry">
                        <mxPoint x="898.7842712474619" y="2796.715728752538" as="sourcePoint"/>
                        <mxPoint x="989.74" y="2713.24" as="targetPoint"/>
                    </mxGeometry>
                </mxCell>
                <mxCell id="215" value="" style="endArrow=none;html=1;fontSize=40;fontColor=#000000;strokeColor=#000000;strokeWidth=3;entryX=1;entryY=0;entryDx=0;entryDy=0;" edge="1" parent="1" source="208" target="210">
                    <mxGeometry width="50" height="50" relative="1" as="geometry">
                        <mxPoint x="908.7842712474619" y="2806.715728752538" as="sourcePoint"/>
                        <mxPoint x="999.74" y="2723.24" as="targetPoint"/>
                    </mxGeometry>
                </mxCell>
                <mxCell id="216" value="" style="endArrow=none;html=1;fontSize=40;fontColor=#000000;strokeColor=#000000;strokeWidth=3;exitX=0.85;exitY=0.088;exitDx=0;exitDy=0;exitPerimeter=0;entryX=0;entryY=1;entryDx=0;entryDy=0;" edge="1" parent="1" source="212" target="210">
                    <mxGeometry width="50" height="50" relative="1" as="geometry">
                        <mxPoint x="852.5042712474619" y="3060.475728752538" as="sourcePoint"/>
                        <mxPoint x="943.46" y="2977" as="targetPoint"/>
                    </mxGeometry>
                </mxCell>
                <mxCell id="217" value="" style="endArrow=none;html=1;fontSize=40;fontColor=#000000;strokeColor=#000000;strokeWidth=3;" edge="1" parent="1" source="211">
                    <mxGeometry width="50" height="50" relative="1" as="geometry">
                        <mxPoint x="977.5016324936312" y="2932.902198036413" as="sourcePoint"/>
                        <mxPoint x="956" y="2958" as="targetPoint"/>
                    </mxGeometry>
                </mxCell>
                <mxCell id="218" value="50" style="ellipse;whiteSpace=wrap;html=1;aspect=fixed;fillColor=#FFFFFF;strokeColor=#000000;fontColor=#000000;fontSize=40;" vertex="1" parent="1">
                    <mxGeometry x="-315.5" y="3733" width="80" height="80" as="geometry"/>
                </mxCell>
                <mxCell id="219" value="25" style="ellipse;whiteSpace=wrap;html=1;aspect=fixed;fillColor=#FFFFFF;strokeColor=#000000;fontColor=#000000;fontSize=40;" vertex="1" parent="1">
                    <mxGeometry x="-456" y="3612" width="80" height="80" as="geometry"/>
                </mxCell>
                <mxCell id="220" value="75" style="ellipse;whiteSpace=wrap;html=1;aspect=fixed;fillColor=#FFFFFF;strokeColor=#000000;fontColor=#000000;fontSize=40;" vertex="1" parent="1">
                    <mxGeometry x="-183.5" y="3893" width="80" height="80" as="geometry"/>
                </mxCell>
                <mxCell id="222" value="" style="endArrow=none;html=1;fontSize=40;fontColor=#000000;strokeColor=#000000;strokeWidth=3;exitX=1;exitY=1;exitDx=0;exitDy=0;" edge="1" parent="1" source="219">
                    <mxGeometry width="50" height="50" relative="1" as="geometry">
                        <mxPoint x="-362" y="3608" as="sourcePoint"/>
                        <mxPoint x="-318.5" y="3740" as="targetPoint"/>
                    </mxGeometry>
                </mxCell>
                <mxCell id="223" value="" style="endArrow=none;html=1;fontSize=40;fontColor=#000000;strokeColor=#000000;strokeWidth=3;entryX=1;entryY=1;entryDx=0;entryDy=0;" edge="1" parent="1" source="220" target="218">
                    <mxGeometry width="50" height="50" relative="1" as="geometry">
                        <mxPoint x="-377.7157287525381" y="3633.715728752538" as="sourcePoint"/>
                        <mxPoint x="-286.76" y="3550.24" as="targetPoint"/>
                    </mxGeometry>
                </mxCell>
                <mxCell id="226" value="50" style="ellipse;whiteSpace=wrap;html=1;aspect=fixed;fillColor=#FFFFFF;strokeColor=#000000;fontColor=#000000;fontSize=40;" vertex="1" parent="1">
                    <mxGeometry x="370.25" y="3714" width="80" height="80" as="geometry"/>
                </mxCell>
                <mxCell id="227" value="25" style="ellipse;whiteSpace=wrap;html=1;aspect=fixed;fillColor=#FFFFFF;strokeColor=#000000;fontColor=#000000;fontSize=40;" vertex="1" parent="1">
                    <mxGeometry x="238" y="3866" width="80" height="80" as="geometry"/>
                </mxCell>
                <mxCell id="228" value="75" style="ellipse;whiteSpace=wrap;html=1;aspect=fixed;fillColor=#FFFFFF;strokeColor=#000000;fontColor=#000000;fontSize=40;" vertex="1" parent="1">
                    <mxGeometry x="502.25" y="3874" width="80" height="80" as="geometry"/>
                </mxCell>
                <mxCell id="229" value="" style="endArrow=none;html=1;fontSize=40;fontColor=#000000;strokeColor=#000000;strokeWidth=3;entryX=0;entryY=1;entryDx=0;entryDy=0;" edge="1" parent="1" source="227" target="226">
                    <mxGeometry width="50" height="50" relative="1" as="geometry">
                        <mxPoint x="323.75" y="3589" as="sourcePoint"/>
                        <mxPoint x="367.25" y="3721" as="targetPoint"/>
                    </mxGeometry>
                </mxCell>
                <mxCell id="230" value="" style="endArrow=none;html=1;fontSize=40;fontColor=#000000;strokeColor=#000000;strokeWidth=3;entryX=1;entryY=1;entryDx=0;entryDy=0;" edge="1" parent="1" source="228" target="226">
                    <mxGeometry width="50" height="50" relative="1" as="geometry">
                        <mxPoint x="308.0342712474619" y="3614.715728752538" as="sourcePoint"/>
                        <mxPoint x="398.99" y="3531.24" as="targetPoint"/>
                    </mxGeometry>
                </mxCell>
                <mxCell id="231" value="50" style="ellipse;whiteSpace=wrap;html=1;aspect=fixed;fillColor=#FFFFFF;strokeColor=#000000;fontColor=#000000;fontSize=40;" vertex="1" parent="1">
                    <mxGeometry x="-1100.5" y="3806" width="80" height="80" as="geometry"/>
                </mxCell>
                <mxCell id="232" value="25" style="ellipse;whiteSpace=wrap;html=1;aspect=fixed;fillColor=#FFFFFF;strokeColor=#000000;fontColor=#000000;fontSize=40;" vertex="1" parent="1">
                    <mxGeometry x="-1241" y="3685" width="80" height="80" as="geometry"/>
                </mxCell>
                <mxCell id="233" value="" style="endArrow=none;html=1;fontSize=40;fontColor=#000000;strokeColor=#000000;strokeWidth=3;exitX=1;exitY=1;exitDx=0;exitDy=0;" edge="1" parent="1" source="232">
                    <mxGeometry width="50" height="50" relative="1" as="geometry">
                        <mxPoint x="-1147" y="3681" as="sourcePoint"/>
                        <mxPoint x="-1103.5" y="3813" as="targetPoint"/>
                    </mxGeometry>
                </mxCell>
                <mxCell id="252" value="50" style="ellipse;whiteSpace=wrap;html=1;aspect=fixed;fillColor=#FFFFFF;strokeColor=#000000;fontColor=#000000;fontSize=40;" vertex="1" parent="1">
                    <mxGeometry x="-1402" y="4224" width="80" height="80" as="geometry"/>
                </mxCell>
                <mxCell id="253" value="25" style="ellipse;whiteSpace=wrap;html=1;aspect=fixed;fillColor=#FFFFFF;strokeColor=#000000;fontColor=#000000;fontSize=40;" vertex="1" parent="1">
                    <mxGeometry x="-1559" y="4356" width="80" height="80" as="geometry"/>
                </mxCell>
                <mxCell id="254" value="75" style="ellipse;whiteSpace=wrap;html=1;aspect=fixed;fillColor=#FFFFFF;strokeColor=#000000;fontColor=#000000;fontSize=40;" vertex="1" parent="1">
                    <mxGeometry x="-1254" y="4360" width="80" height="80" as="geometry"/>
                </mxCell>
                <mxCell id="259" value="65" style="ellipse;whiteSpace=wrap;html=1;aspect=fixed;fillColor=#FFFFFF;strokeColor=#000000;fontColor=#000000;fontSize=40;" vertex="1" parent="1">
                    <mxGeometry x="-1296" y="4503" width="80" height="80" as="geometry"/>
                </mxCell>
                <mxCell id="260" value="85" style="ellipse;whiteSpace=wrap;html=1;aspect=fixed;fillColor=#FFFFFF;strokeColor=#000000;fontColor=#000000;fontSize=40;" vertex="1" parent="1">
                    <mxGeometry x="-1150" y="4506" width="80" height="80" as="geometry"/>
                </mxCell>
                <mxCell id="261" value="" style="endArrow=none;html=1;fontSize=40;fontColor=#000000;strokeColor=#000000;strokeWidth=3;exitX=1;exitY=0;exitDx=0;exitDy=0;entryX=0.028;entryY=0.753;entryDx=0;entryDy=0;entryPerimeter=0;" edge="1" parent="1" source="253" target="252">
                    <mxGeometry width="50" height="50" relative="1" as="geometry">
                        <mxPoint x="-1465" y="4352" as="sourcePoint"/>
                        <mxPoint x="-1415" y="4302" as="targetPoint"/>
                    </mxGeometry>
                </mxCell>
                <mxCell id="262" value="" style="endArrow=none;html=1;fontSize=40;fontColor=#000000;strokeColor=#000000;strokeWidth=3;entryX=1;entryY=1;entryDx=0;entryDy=0;" edge="1" parent="1" source="254" target="252">
                    <mxGeometry width="50" height="50" relative="1" as="geometry">
                        <mxPoint x="-1480.715728752538" y="4377.715728752538" as="sourcePoint"/>
                        <mxPoint x="-1389.76" y="4294.24" as="targetPoint"/>
                    </mxGeometry>
                </mxCell>
                <mxCell id="265" value="" style="endArrow=none;html=1;fontSize=40;fontColor=#000000;strokeColor=#000000;strokeWidth=3;entryX=0.298;entryY=0.995;entryDx=0;entryDy=0;entryPerimeter=0;exitX=0.5;exitY=0;exitDx=0;exitDy=0;" edge="1" parent="1" source="259" target="254">
                    <mxGeometry width="50" height="50" relative="1" as="geometry">
                        <mxPoint x="-1277.62" y="4520.76" as="sourcePoint"/>
                        <mxPoint x="-1150.38" y="4371" as="targetPoint"/>
                    </mxGeometry>
                </mxCell>
                <mxCell id="266" value="" style="endArrow=none;html=1;fontSize=40;fontColor=#000000;strokeColor=#000000;strokeWidth=3;entryX=0.827;entryY=0.938;entryDx=0;entryDy=0;entryPerimeter=0;" edge="1" parent="1" target="254">
                    <mxGeometry width="50" height="50" relative="1" as="geometry">
                        <mxPoint x="-1125" y="4501" as="sourcePoint"/>
                        <mxPoint x="-1202.9957287525528" y="4432.004271247447" as="targetPoint"/>
                    </mxGeometry>
                </mxCell>
                <mxCell id="269" value="50" style="ellipse;whiteSpace=wrap;html=1;aspect=fixed;fillColor=#FFFFFF;strokeColor=#000000;fontColor=#000000;fontSize=40;" vertex="1" parent="1">
                    <mxGeometry x="-342" y="4196" width="80" height="80" as="geometry"/>
                </mxCell>
                <mxCell id="270" value="25" style="ellipse;whiteSpace=wrap;html=1;aspect=fixed;fillColor=#FFFFFF;strokeColor=#000000;fontColor=#000000;fontSize=40;" vertex="1" parent="1">
                    <mxGeometry x="-499" y="4328" width="80" height="80" as="geometry"/>
                </mxCell>
                <mxCell id="271" value="75" style="ellipse;whiteSpace=wrap;html=1;aspect=fixed;fillColor=#FFFFFF;strokeColor=#000000;fontColor=#000000;fontSize=40;" vertex="1" parent="1">
                    <mxGeometry x="-194" y="4332" width="80" height="80" as="geometry"/>
                </mxCell>
                <mxCell id="272" value="65" style="ellipse;whiteSpace=wrap;html=1;aspect=fixed;fillColor=#FFFFFF;strokeColor=#000000;fontColor=#000000;fontSize=40;" vertex="1" parent="1">
                    <mxGeometry x="-236" y="4475" width="80" height="80" as="geometry"/>
                </mxCell>
                <mxCell id="273" value="85" style="ellipse;whiteSpace=wrap;html=1;aspect=fixed;fillColor=#FFFFFF;strokeColor=#000000;fontColor=#000000;fontSize=40;" vertex="1" parent="1">
                    <mxGeometry x="-90" y="4478" width="80" height="80" as="geometry"/>
                </mxCell>
                <mxCell id="274" value="" style="endArrow=none;html=1;fontSize=40;fontColor=#000000;strokeColor=#000000;strokeWidth=3;exitX=1;exitY=0;exitDx=0;exitDy=0;entryX=0.028;entryY=0.753;entryDx=0;entryDy=0;entryPerimeter=0;" edge="1" parent="1" source="270" target="269">
                    <mxGeometry width="50" height="50" relative="1" as="geometry">
                        <mxPoint x="-405" y="4324" as="sourcePoint"/>
                        <mxPoint x="-355" y="4274" as="targetPoint"/>
                    </mxGeometry>
                </mxCell>
                <mxCell id="275" value="" style="endArrow=none;html=1;fontSize=40;fontColor=#000000;strokeColor=#000000;strokeWidth=3;entryX=1;entryY=1;entryDx=0;entryDy=0;" edge="1" parent="1" source="271" target="269">
                    <mxGeometry width="50" height="50" relative="1" as="geometry">
                        <mxPoint x="-420.7157287525381" y="4349.715728752538" as="sourcePoint"/>
                        <mxPoint x="-329.76" y="4266.24" as="targetPoint"/>
                    </mxGeometry>
                </mxCell>
                <mxCell id="276" value="" style="endArrow=none;html=1;fontSize=40;fontColor=#000000;strokeColor=#000000;strokeWidth=3;entryX=0.298;entryY=0.995;entryDx=0;entryDy=0;entryPerimeter=0;exitX=0.5;exitY=0;exitDx=0;exitDy=0;" edge="1" parent="1" source="272" target="271">
                    <mxGeometry width="50" height="50" relative="1" as="geometry">
                        <mxPoint x="-217.6199999999999" y="4492.76" as="sourcePoint"/>
                        <mxPoint x="-90.38" y="4343" as="targetPoint"/>
                    </mxGeometry>
                </mxCell>
                <mxCell id="277" value="" style="endArrow=none;html=1;fontSize=40;fontColor=#000000;strokeColor=#000000;strokeWidth=3;entryX=0.827;entryY=0.938;entryDx=0;entryDy=0;entryPerimeter=0;" edge="1" parent="1" target="271">
                    <mxGeometry width="50" height="50" relative="1" as="geometry">
                        <mxPoint x="-64.99999999999955" y="4473" as="sourcePoint"/>
                        <mxPoint x="-142.99572875255285" y="4404.004271247447" as="targetPoint"/>
                    </mxGeometry>
                </mxCell>
                <mxCell id="278" value="100" style="ellipse;whiteSpace=wrap;html=1;aspect=fixed;fillColor=#FFFFFF;strokeColor=#000000;fontColor=#000000;fontSize=40;" vertex="1" parent="1">
                    <mxGeometry x="18.840000000000003" y="4619.96" width="80" height="80" as="geometry"/>
                </mxCell>
                <mxCell id="279" value="" style="endArrow=none;html=1;fontSize=40;fontColor=#000000;strokeColor=#000000;strokeWidth=3;entryX=0.827;entryY=0.938;entryDx=0;entryDy=0;entryPerimeter=0;" edge="1" parent="1">
                    <mxGeometry width="50" height="50" relative="1" as="geometry">
                        <mxPoint x="43.84000000000046" y="4614.96" as="sourcePoint"/>
                        <mxPoint x="-19.000000000000142" y="4549" as="targetPoint"/>
                    </mxGeometry>
                </mxCell>
                <mxCell id="280" value="50" style="ellipse;whiteSpace=wrap;html=1;aspect=fixed;fillColor=#FFFFFF;strokeColor=#000000;fontColor=#000000;fontSize=40;" vertex="1" parent="1">
                    <mxGeometry x="468.4200000000001" y="4327.5" width="80" height="80" as="geometry"/>
                </mxCell>
                <mxCell id="281" value="25" style="ellipse;whiteSpace=wrap;html=1;aspect=fixed;fillColor=#FFFFFF;strokeColor=#000000;fontColor=#000000;fontSize=40;" vertex="1" parent="1">
                    <mxGeometry x="321.00000000000006" y="4484.5" width="80" height="80" as="geometry"/>
                </mxCell>
                <mxCell id="282" value="75" style="ellipse;whiteSpace=wrap;html=1;aspect=fixed;fillColor=#FFFFFF;strokeColor=#000000;fontColor=#000000;fontSize=40;" vertex="1" parent="1">
                    <mxGeometry x="626" y="4186.5" width="80" height="80" as="geometry"/>
                </mxCell>
                <mxCell id="283" value="65" style="ellipse;whiteSpace=wrap;html=1;aspect=fixed;fillColor=#FFFFFF;strokeColor=#000000;fontColor=#000000;fontSize=40;" vertex="1" parent="1">
                    <mxGeometry x="557.42" y="4487.5" width="80" height="80" as="geometry"/>
                </mxCell>
                <mxCell id="284" value="85" style="ellipse;whiteSpace=wrap;html=1;aspect=fixed;fillColor=#FFFFFF;strokeColor=#000000;fontColor=#000000;fontSize=40;" vertex="1" parent="1">
                    <mxGeometry x="730" y="4332.5" width="80" height="80" as="geometry"/>
                </mxCell>
                <mxCell id="285" value="" style="endArrow=none;html=1;fontSize=40;fontColor=#000000;strokeColor=#000000;strokeWidth=3;exitX=1;exitY=0;exitDx=0;exitDy=0;entryX=0.028;entryY=0.753;entryDx=0;entryDy=0;entryPerimeter=0;" edge="1" parent="1" source="281" target="280">
                    <mxGeometry width="50" height="50" relative="1" as="geometry">
                        <mxPoint x="415.00000000000006" y="4178.5" as="sourcePoint"/>
                        <mxPoint x="465.00000000000006" y="4128.5" as="targetPoint"/>
                    </mxGeometry>
                </mxCell>
                <mxCell id="286" value="" style="endArrow=none;html=1;fontSize=40;fontColor=#000000;strokeColor=#000000;strokeWidth=3;entryX=1;entryY=0;entryDx=0;entryDy=0;" edge="1" parent="1" source="282" target="280">
                    <mxGeometry width="50" height="50" relative="1" as="geometry">
                        <mxPoint x="399.28427124746196" y="4204.215728752538" as="sourcePoint"/>
                        <mxPoint x="490.24000000000007" y="4120.74" as="targetPoint"/>
                    </mxGeometry>
                </mxCell>
                <mxCell id="287" value="" style="endArrow=none;html=1;fontSize=40;fontColor=#000000;strokeColor=#000000;strokeWidth=3;entryX=1;entryY=1;entryDx=0;entryDy=0;exitX=0.5;exitY=0;exitDx=0;exitDy=0;" edge="1" parent="1" source="283" target="280">
                    <mxGeometry width="50" height="50" relative="1" as="geometry">
                        <mxPoint x="602.3800000000001" y="4347.26" as="sourcePoint"/>
                        <mxPoint x="729.62" y="4197.5" as="targetPoint"/>
                    </mxGeometry>
                </mxCell>
                <mxCell id="288" value="" style="endArrow=none;html=1;fontSize=40;fontColor=#000000;strokeColor=#000000;strokeWidth=3;entryX=0.827;entryY=0.938;entryDx=0;entryDy=0;entryPerimeter=0;" edge="1" parent="1" target="282">
                    <mxGeometry width="50" height="50" relative="1" as="geometry">
                        <mxPoint x="755.0000000000005" y="4327.5" as="sourcePoint"/>
                        <mxPoint x="677.0042712474472" y="4258.504271247447" as="targetPoint"/>
                    </mxGeometry>
                </mxCell>
                <mxCell id="289" value="100" style="ellipse;whiteSpace=wrap;html=1;aspect=fixed;fillColor=#FFFFFF;strokeColor=#000000;fontColor=#000000;fontSize=40;" vertex="1" parent="1">
                    <mxGeometry x="838.84" y="4474.46" width="80" height="80" as="geometry"/>
                </mxCell>
                <mxCell id="290" value="" style="endArrow=none;html=1;fontSize=40;fontColor=#000000;strokeColor=#000000;strokeWidth=3;entryX=0.827;entryY=0.938;entryDx=0;entryDy=0;entryPerimeter=0;" edge="1" parent="1">
                    <mxGeometry width="50" height="50" relative="1" as="geometry">
                        <mxPoint x="863.8400000000006" y="4469.46" as="sourcePoint"/>
                        <mxPoint x="801" y="4403.5" as="targetPoint"/>
                    </mxGeometry>
                </mxCell>
                <mxCell id="293" value="左子树新增左节点10" style="text;html=1;align=center;verticalAlign=middle;resizable=0;points=[];autosize=1;fontSize=56;fontColor=#000000;" vertex="1" parent="1">
                    <mxGeometry x="-827" y="2932" width="520" height="71" as="geometry"/>
                </mxCell>
                <mxCell id="294" value="" style="shape=flexArrow;endArrow=classic;html=1;strokeColor=#000000;strokeWidth=3;fontSize=56;fontColor=#000000;width=11.666666666666668;endSize=5.366666666666667;" edge="1" parent="1">
                    <mxGeometry width="50" height="50" relative="1" as="geometry">
                        <mxPoint x="396.5" y="2914.25" as="sourcePoint"/>
                        <mxPoint x="524.5" y="2914.25" as="targetPoint"/>
                    </mxGeometry>
                </mxCell>
                <mxCell id="296" value="" style="shape=flexArrow;endArrow=classic;html=1;strokeColor=#000000;strokeWidth=3;fontSize=56;fontColor=#000000;width=11.666666666666668;endSize=5.366666666666667;" edge="1" parent="1">
                    <mxGeometry width="50" height="50" relative="1" as="geometry">
                        <mxPoint x="-967" y="3823.83" as="sourcePoint"/>
                        <mxPoint x="-444" y="3823.91" as="targetPoint"/>
                    </mxGeometry>
                </mxCell>
                <mxCell id="297" value="&lt;span style=&quot;color: rgba(0 , 0 , 0 , 0) ; font-family: monospace ; font-size: 0px&quot;&gt;%3CmxGraphModel%3E%3Croot%3E%3CmxCell%20id%3D%220%22%2F%3E%3CmxCell%20id%3D%221%22%20parent%3D%220%22%2F%3E%3CmxCell%20id%3D%222%22%20value%3D%22%E5%B7%A6%E5%AD%90%E6%A0%91%E6%96%B0%E5%A2%9E%E5%B7%A6%E8%8A%82%E7%82%B912%22%20style%3D%22text%3Bhtml%3D1%3Balign%3Dcenter%3BverticalAlign%3Dmiddle%3Bresizable%3D0%3Bpoints%3D%5B%5D%3Bautosize%3D1%3BfontSize%3D56%3BfontColor%3D%23000000%3B%22%20vertex%3D%221%22%20parent%3D%221%22%3E%3CmxGeometry%20x%3D%22-1118%22%20y%3D%222293%22%20width%3D%22520%22%20height%3D%2271%22%20as%3D%22geometry%22%2F%3E%3C%2FmxCell%3E%3C%2Froot%3E%3C%2FmxGraphModel%3E&lt;/span&gt;" style="text;html=1;align=center;verticalAlign=middle;resizable=0;points=[];autosize=1;fontSize=56;fontColor=#000000;" vertex="1" parent="1">
                    <mxGeometry x="-798" y="3718.83" width="10" height="91" as="geometry"/>
                </mxCell>
                <mxCell id="298" value="右子树新增右节点75" style="text;html=1;align=center;verticalAlign=middle;resizable=0;points=[];autosize=1;fontSize=56;fontColor=#000000;" vertex="1" parent="1">
                    <mxGeometry x="-962" y="3736.58" width="520" height="71" as="geometry"/>
                </mxCell>
                <mxCell id="300" value="Ｒ－Ｒ型" style="text;html=1;align=center;verticalAlign=middle;resizable=0;points=[];autosize=1;fontSize=56;fontColor=#000000;" vertex="1" parent="1">
                    <mxGeometry x="-490" y="3478" width="234" height="71" as="geometry"/>
                </mxCell>
                <mxCell id="301" value="" style="shape=flexArrow;endArrow=classic;html=1;strokeColor=#000000;strokeWidth=3;fontSize=56;fontColor=#000000;width=11.666666666666668;endSize=5.366666666666667;" edge="1" parent="1">
                    <mxGeometry width="50" height="50" relative="1" as="geometry">
                        <mxPoint x="-8" y="3842" as="sourcePoint"/>
                        <mxPoint x="120" y="3842" as="targetPoint"/>
                    </mxGeometry>
                </mxCell>
                <mxCell id="302" value="" style="shape=flexArrow;endArrow=classic;html=1;strokeColor=#000000;strokeWidth=3;fontSize=56;fontColor=#000000;width=11.666666666666668;endSize=5.366666666666667;" edge="1" parent="1">
                    <mxGeometry width="50" height="50" relative="1" as="geometry">
                        <mxPoint x="190" y="4384" as="sourcePoint"/>
                        <mxPoint x="318" y="4384" as="targetPoint"/>
                    </mxGeometry>
                </mxCell>
                <mxCell id="303" value="" style="shape=flexArrow;endArrow=classic;html=1;strokeColor=#000000;strokeWidth=3;fontSize=56;fontColor=#000000;width=11.666666666666668;endSize=5.366666666666667;" edge="1" parent="1">
                    <mxGeometry width="50" height="50" relative="1" as="geometry">
                        <mxPoint x="-1089.9999999999995" y="4431" as="sourcePoint"/>
                        <mxPoint x="-567" y="4431.08" as="targetPoint"/>
                    </mxGeometry>
                </mxCell>
                <mxCell id="304" value="&lt;span style=&quot;color: rgba(0 , 0 , 0 , 0) ; font-family: monospace ; font-size: 0px&quot;&gt;%3CmxGraphModel%3E%3Croot%3E%3CmxCell%20id%3D%220%22%2F%3E%3CmxCell%20id%3D%221%22%20parent%3D%220%22%2F%3E%3CmxCell%20id%3D%222%22%20value%3D%22%E5%B7%A6%E5%AD%90%E6%A0%91%E6%96%B0%E5%A2%9E%E5%B7%A6%E8%8A%82%E7%82%B912%22%20style%3D%22text%3Bhtml%3D1%3Balign%3Dcenter%3BverticalAlign%3Dmiddle%3Bresizable%3D0%3Bpoints%3D%5B%5D%3Bautosize%3D1%3BfontSize%3D56%3BfontColor%3D%23000000%3B%22%20vertex%3D%221%22%20parent%3D%221%22%3E%3CmxGeometry%20x%3D%22-1118%22%20y%3D%222293%22%20width%3D%22520%22%20height%3D%2271%22%20as%3D%22geometry%22%2F%3E%3C%2FmxCell%3E%3C%2Froot%3E%3C%2FmxGraphModel%3E&lt;/span&gt;" style="text;html=1;align=center;verticalAlign=middle;resizable=0;points=[];autosize=1;fontSize=56;fontColor=#000000;" vertex="1" parent="1">
                    <mxGeometry x="-921" y="4326" width="10" height="91" as="geometry"/>
                </mxCell>
                <mxCell id="305" value="右子树新增右节点100" style="text;html=1;align=center;verticalAlign=middle;resizable=0;points=[];autosize=1;fontSize=56;fontColor=#000000;" vertex="1" parent="1">
                    <mxGeometry x="-1100" y="4343.75" width="551" height="71" as="geometry"/>
                </mxCell>
                <mxCell id="306" value="Ｌ－Ｒ型" style="text;html=1;align=center;verticalAlign=middle;resizable=0;points=[];autosize=1;fontSize=56;fontColor=#000000;" vertex="1" parent="1">
                    <mxGeometry x="2002" y="2146" width="234" height="71" as="geometry"/>
                </mxCell>
                <mxCell id="307" value="50" style="ellipse;whiteSpace=wrap;html=1;aspect=fixed;fillColor=#FFFFFF;strokeColor=#000000;fontColor=#000000;fontSize=40;" vertex="1" parent="1">
                    <mxGeometry x="2318" y="2285" width="80" height="80" as="geometry"/>
                </mxCell>
                <mxCell id="308" value="30" style="ellipse;whiteSpace=wrap;html=1;aspect=fixed;fillColor=#FFFFFF;strokeColor=#000000;fontColor=#000000;fontSize=40;" vertex="1" parent="1">
                    <mxGeometry x="2318" y="2595" width="80" height="80" as="geometry"/>
                </mxCell>
                <mxCell id="309" value="25" style="ellipse;whiteSpace=wrap;html=1;aspect=fixed;fillColor=#FFFFFF;strokeColor=#000000;fontColor=#000000;fontSize=40;" vertex="1" parent="1">
                    <mxGeometry x="2208" y="2435" width="80" height="80" as="geometry"/>
                </mxCell>
                <mxCell id="310" value="" style="endArrow=none;html=1;fontSize=40;fontColor=#000000;strokeColor=#000000;strokeWidth=3;exitX=0.85;exitY=0.088;exitDx=0;exitDy=0;exitPerimeter=0;" edge="1" parent="1">
                    <mxGeometry width="50" height="50" relative="1" as="geometry">
                        <mxPoint x="2277.25" y="2432.8600000000006" as="sourcePoint"/>
                        <mxPoint x="2318.002851403029" y="2386.004220886516" as="targetPoint"/>
                    </mxGeometry>
                </mxCell>
                <mxCell id="311" value="" style="endArrow=none;html=1;fontSize=40;fontColor=#000000;strokeColor=#000000;strokeWidth=3;exitX=0.25;exitY=0.025;exitDx=0;exitDy=0;exitPerimeter=0;entryX=1;entryY=1;entryDx=0;entryDy=0;" edge="1" parent="1" source="308" target="309">
                    <mxGeometry width="50" height="50" relative="1" as="geometry">
                        <mxPoint x="2169" y="2563.8600000000006" as="sourcePoint"/>
                        <mxPoint x="2209.75285140303" y="2517.004220886516" as="targetPoint"/>
                    </mxGeometry>
                </mxCell>
                <mxCell id="313" value="50" style="ellipse;whiteSpace=wrap;html=1;aspect=fixed;fillColor=#FFFFFF;strokeColor=#000000;fontColor=#000000;fontSize=40;" vertex="1" parent="1">
                    <mxGeometry x="2748" y="2515" width="80" height="80" as="geometry"/>
                </mxCell>
                <mxCell id="314" value="12" style="ellipse;whiteSpace=wrap;html=1;aspect=fixed;fillColor=#FFFFFF;strokeColor=#000000;fontColor=#000000;fontSize=40;" vertex="1" parent="1">
                    <mxGeometry x="2526" y="2515" width="80" height="80" as="geometry"/>
                </mxCell>
                <mxCell id="315" value="25" style="ellipse;whiteSpace=wrap;html=1;aspect=fixed;fillColor=#FFFFFF;strokeColor=#000000;fontColor=#000000;fontSize=40;" vertex="1" parent="1">
                    <mxGeometry x="2648" y="2353" width="80" height="80" as="geometry"/>
                </mxCell>
                <mxCell id="316" value="" style="endArrow=none;html=1;fontSize=40;fontColor=#000000;strokeColor=#000000;strokeWidth=3;" edge="1" parent="1">
                    <mxGeometry width="50" height="50" relative="1" as="geometry">
                        <mxPoint x="2724" y="2448" as="sourcePoint"/>
                        <mxPoint x="2756" y="2508" as="targetPoint"/>
                    </mxGeometry>
                </mxCell>
                <mxCell id="317" value="" style="endArrow=none;html=1;fontSize=40;fontColor=#000000;strokeColor=#000000;strokeWidth=3;exitX=0.85;exitY=0.088;exitDx=0;exitDy=0;exitPerimeter=0;" edge="1" parent="1">
                    <mxGeometry width="50" height="50" relative="1" as="geometry">
                        <mxPoint x="2602" y="2488.8600000000006" as="sourcePoint"/>
                        <mxPoint x="2642.75285140303" y="2442.004220886516" as="targetPoint"/>
                    </mxGeometry>
                </mxCell>
                <mxCell id="318" value="50" style="ellipse;whiteSpace=wrap;html=1;aspect=fixed;fillColor=#FFFFFF;strokeColor=#000000;fontColor=#000000;fontSize=40;" vertex="1" parent="1">
                    <mxGeometry x="1584" y="2328" width="80" height="80" as="geometry"/>
                </mxCell>
                <mxCell id="319" value="25" style="ellipse;whiteSpace=wrap;html=1;aspect=fixed;fillColor=#FFFFFF;strokeColor=#000000;fontColor=#000000;fontSize=40;" vertex="1" parent="1">
                    <mxGeometry x="1474" y="2478" width="80" height="80" as="geometry"/>
                </mxCell>
                <mxCell id="320" value="" style="endArrow=none;html=1;fontSize=40;fontColor=#000000;strokeColor=#000000;strokeWidth=3;exitX=0.85;exitY=0.088;exitDx=0;exitDy=0;exitPerimeter=0;" edge="1" parent="1">
                    <mxGeometry width="50" height="50" relative="1" as="geometry">
                        <mxPoint x="1543.25" y="2475.8600000000006" as="sourcePoint"/>
                        <mxPoint x="1584.00285140303" y="2429.004220886516" as="targetPoint"/>
                    </mxGeometry>
                </mxCell>
                <mxCell id="321" value="" style="shape=flexArrow;endArrow=classic;html=1;strokeColor=#000000;strokeWidth=3;fontSize=56;fontColor=#000000;width=11.666666666666668;endSize=5.366666666666667;" edge="1" parent="1">
                    <mxGeometry width="50" height="50" relative="1" as="geometry">
                        <mxPoint x="1669" y="2465" as="sourcePoint"/>
                        <mxPoint x="2166" y="2460" as="targetPoint"/>
                    </mxGeometry>
                </mxCell>
                <mxCell id="322" value="左子树新增左节点12" style="text;html=1;align=center;verticalAlign=middle;resizable=0;points=[];autosize=1;fontSize=56;fontColor=#000000;" vertex="1" parent="1">
                    <mxGeometry x="1672" y="2368" width="520" height="71" as="geometry"/>
                </mxCell>
                <mxCell id="323" value="50" style="ellipse;whiteSpace=wrap;html=1;aspect=fixed;fillColor=#FFFFFF;strokeColor=#000000;fontColor=#000000;fontSize=40;" vertex="1" parent="1">
                    <mxGeometry x="1720" y="2891" width="80" height="80" as="geometry"/>
                </mxCell>
                <mxCell id="324" value="25" style="ellipse;whiteSpace=wrap;html=1;aspect=fixed;fillColor=#FFFFFF;strokeColor=#000000;fontColor=#000000;fontSize=40;" vertex="1" parent="1">
                    <mxGeometry x="1563" y="3023" width="80" height="80" as="geometry"/>
                </mxCell>
                <mxCell id="325" value="75" style="ellipse;whiteSpace=wrap;html=1;aspect=fixed;fillColor=#FFFFFF;strokeColor=#000000;fontColor=#000000;fontSize=40;" vertex="1" parent="1">
                    <mxGeometry x="1868" y="3027" width="80" height="80" as="geometry"/>
                </mxCell>
                <mxCell id="326" value="12" style="ellipse;whiteSpace=wrap;html=1;aspect=fixed;fillColor=#FFFFFF;strokeColor=#000000;fontColor=#000000;fontSize=40;" vertex="1" parent="1">
                    <mxGeometry x="1424" y="3162" width="80" height="80" as="geometry"/>
                </mxCell>
                <mxCell id="327" value="35" style="ellipse;whiteSpace=wrap;html=1;aspect=fixed;fillColor=#FFFFFF;strokeColor=#000000;fontColor=#000000;fontSize=40;" vertex="1" parent="1">
                    <mxGeometry x="1676" y="3170" width="80" height="80" as="geometry"/>
                </mxCell>
                <mxCell id="328" value="" style="endArrow=none;html=1;fontSize=40;fontColor=#000000;strokeColor=#000000;strokeWidth=3;exitX=1;exitY=0;exitDx=0;exitDy=0;entryX=0.028;entryY=0.753;entryDx=0;entryDy=0;entryPerimeter=0;" edge="1" parent="1" source="324" target="323">
                    <mxGeometry width="50" height="50" relative="1" as="geometry">
                        <mxPoint x="1657" y="3019" as="sourcePoint"/>
                        <mxPoint x="1707" y="2969" as="targetPoint"/>
                    </mxGeometry>
                </mxCell>
                <mxCell id="329" value="" style="endArrow=none;html=1;fontSize=40;fontColor=#000000;strokeColor=#000000;strokeWidth=3;entryX=1;entryY=1;entryDx=0;entryDy=0;" edge="1" parent="1" source="325" target="323">
                    <mxGeometry width="50" height="50" relative="1" as="geometry">
                        <mxPoint x="1641.284271247462" y="3044.715728752538" as="sourcePoint"/>
                        <mxPoint x="1732.24" y="2961.24" as="targetPoint"/>
                    </mxGeometry>
                </mxCell>
                <mxCell id="330" value="" style="endArrow=none;html=1;fontSize=40;fontColor=#000000;strokeColor=#000000;strokeWidth=3;exitX=0;exitY=1;exitDx=0;exitDy=0;entryX=1;entryY=0;entryDx=0;entryDy=0;" edge="1" parent="1" source="324" target="326">
                    <mxGeometry width="50" height="50" relative="1" as="geometry">
                        <mxPoint x="1651.284271247462" y="3054.715728752538" as="sourcePoint"/>
                        <mxPoint x="1742.24" y="2971.24" as="targetPoint"/>
                    </mxGeometry>
                </mxCell>
                <mxCell id="331" value="" style="endArrow=none;html=1;fontSize=40;fontColor=#000000;strokeColor=#000000;strokeWidth=3;entryX=1;entryY=1;entryDx=0;entryDy=0;" edge="1" parent="1" source="327">
                    <mxGeometry width="50" height="50" relative="1" as="geometry">
                        <mxPoint x="1720.0016324936312" y="3180.902198036413" as="sourcePoint"/>
                        <mxPoint x="1629.964271247447" y="3100.004271247447" as="targetPoint"/>
                    </mxGeometry>
                </mxCell>
                <mxCell id="332" value="50" style="ellipse;whiteSpace=wrap;html=1;aspect=fixed;fillColor=#FFFFFF;strokeColor=#000000;fontColor=#000000;fontSize=40;" vertex="1" parent="1">
                    <mxGeometry x="2887" y="2813" width="80" height="80" as="geometry"/>
                </mxCell>
                <mxCell id="333" value="25" style="ellipse;whiteSpace=wrap;html=1;aspect=fixed;fillColor=#FFFFFF;strokeColor=#000000;fontColor=#000000;fontSize=40;" vertex="1" parent="1">
                    <mxGeometry x="2730" y="2945" width="80" height="80" as="geometry"/>
                </mxCell>
                <mxCell id="334" value="75" style="ellipse;whiteSpace=wrap;html=1;aspect=fixed;fillColor=#FFFFFF;strokeColor=#000000;fontColor=#000000;fontSize=40;" vertex="1" parent="1">
                    <mxGeometry x="3035" y="2949" width="80" height="80" as="geometry"/>
                </mxCell>
                <mxCell id="335" value="12" style="ellipse;whiteSpace=wrap;html=1;aspect=fixed;fillColor=#FFFFFF;strokeColor=#000000;fontColor=#000000;fontSize=40;" vertex="1" parent="1">
                    <mxGeometry x="2591" y="3084" width="80" height="80" as="geometry"/>
                </mxCell>
                <mxCell id="336" value="35" style="ellipse;whiteSpace=wrap;html=1;aspect=fixed;fillColor=#FFFFFF;strokeColor=#000000;fontColor=#000000;fontSize=40;" vertex="1" parent="1">
                    <mxGeometry x="2843" y="3092" width="80" height="80" as="geometry"/>
                </mxCell>
                <mxCell id="337" value="10" style="ellipse;whiteSpace=wrap;html=1;aspect=fixed;fillColor=#FFFFFF;strokeColor=#000000;fontColor=#000000;fontSize=40;" vertex="1" parent="1">
                    <mxGeometry x="2448" y="3252" width="80" height="80" as="geometry"/>
                </mxCell>
                <mxCell id="338" value="" style="endArrow=none;html=1;fontSize=40;fontColor=#000000;strokeColor=#000000;strokeWidth=3;exitX=1;exitY=0;exitDx=0;exitDy=0;entryX=0.028;entryY=0.753;entryDx=0;entryDy=0;entryPerimeter=0;" edge="1" parent="1" source="333" target="332">
                    <mxGeometry width="50" height="50" relative="1" as="geometry">
                        <mxPoint x="2824" y="2941" as="sourcePoint"/>
                        <mxPoint x="2874" y="2891" as="targetPoint"/>
                    </mxGeometry>
                </mxCell>
                <mxCell id="339" value="" style="endArrow=none;html=1;fontSize=40;fontColor=#000000;strokeColor=#000000;strokeWidth=3;entryX=1;entryY=1;entryDx=0;entryDy=0;" edge="1" parent="1" source="334" target="332">
                    <mxGeometry width="50" height="50" relative="1" as="geometry">
                        <mxPoint x="2808.284271247462" y="2966.715728752538" as="sourcePoint"/>
                        <mxPoint x="2899.24" y="2883.24" as="targetPoint"/>
                    </mxGeometry>
                </mxCell>
                <mxCell id="340" value="" style="endArrow=none;html=1;fontSize=40;fontColor=#000000;strokeColor=#000000;strokeWidth=3;exitX=0;exitY=1;exitDx=0;exitDy=0;entryX=1;entryY=0;entryDx=0;entryDy=0;" edge="1" parent="1" source="333" target="335">
                    <mxGeometry width="50" height="50" relative="1" as="geometry">
                        <mxPoint x="2818.284271247462" y="2976.715728752538" as="sourcePoint"/>
                        <mxPoint x="2909.24" y="2893.24" as="targetPoint"/>
                    </mxGeometry>
                </mxCell>
                <mxCell id="341" value="" style="endArrow=none;html=1;fontSize=40;fontColor=#000000;strokeColor=#000000;strokeWidth=3;exitX=0.85;exitY=0.088;exitDx=0;exitDy=0;exitPerimeter=0;entryX=0;entryY=1;entryDx=0;entryDy=0;" edge="1" parent="1" source="337" target="335">
                    <mxGeometry width="50" height="50" relative="1" as="geometry">
                        <mxPoint x="2762.004271247462" y="3230.475728752538" as="sourcePoint"/>
                        <mxPoint x="2852.96" y="3147" as="targetPoint"/>
                    </mxGeometry>
                </mxCell>
                <mxCell id="342" value="" style="endArrow=none;html=1;fontSize=40;fontColor=#000000;strokeColor=#000000;strokeWidth=3;entryX=1;entryY=1;entryDx=0;entryDy=0;" edge="1" parent="1" source="336">
                    <mxGeometry width="50" height="50" relative="1" as="geometry">
                        <mxPoint x="2887.0016324936314" y="3102.902198036413" as="sourcePoint"/>
                        <mxPoint x="2796.964271247447" y="3022.004271247447" as="targetPoint"/>
                    </mxGeometry>
                </mxCell>
                <mxCell id="343" value="" style="shape=flexArrow;endArrow=classic;html=1;strokeColor=#000000;strokeWidth=3;fontSize=56;fontColor=#000000;width=11.666666666666668;endSize=5.366666666666667;" edge="1" parent="1">
                    <mxGeometry width="50" height="50" relative="1" as="geometry">
                        <mxPoint x="1958" y="3094.25" as="sourcePoint"/>
                        <mxPoint x="2428" y="3093.999999999999" as="targetPoint"/>
                    </mxGeometry>
                </mxCell>
                <mxCell id="344" value="&lt;span style=&quot;color: rgba(0 , 0 , 0 , 0) ; font-family: monospace ; font-size: 0px&quot;&gt;%3CmxGraphModel%3E%3Croot%3E%3CmxCell%20id%3D%220%22%2F%3E%3CmxCell%20id%3D%221%22%20parent%3D%220%22%2F%3E%3CmxCell%20id%3D%222%22%20value%3D%22%E5%B7%A6%E5%AD%90%E6%A0%91%E6%96%B0%E5%A2%9E%E5%B7%A6%E8%8A%82%E7%82%B912%22%20style%3D%22text%3Bhtml%3D1%3Balign%3Dcenter%3BverticalAlign%3Dmiddle%3Bresizable%3D0%3Bpoints%3D%5B%5D%3Bautosize%3D1%3BfontSize%3D56%3BfontColor%3D%23000000%3B%22%20vertex%3D%221%22%20parent%3D%221%22%3E%3CmxGeometry%20x%3D%22-1118%22%20y%3D%222293%22%20width%3D%22520%22%20height%3D%2271%22%20as%3D%22geometry%22%2F%3E%3C%2FmxCell%3E%3C%2Froot%3E%3C%2FmxGraphModel%3E&lt;/span&gt;" style="text;html=1;align=center;verticalAlign=middle;resizable=0;points=[];autosize=1;fontSize=56;fontColor=#000000;" vertex="1" parent="1">
                    <mxGeometry x="2127" y="2989.25" width="10" height="91" as="geometry"/>
                </mxCell>
                <mxCell id="345" value="&lt;span style=&quot;color: rgba(0 , 0 , 0 , 0) ; font-family: monospace ; font-size: 0px&quot;&gt;%3CmxGraphModel%3E%3Croot%3E%3CmxCell%20id%3D%220%22%2F%3E%3CmxCell%20id%3D%221%22%20parent%3D%220%22%2F%3E%3CmxCell%20id%3D%222%22%20value%3D%22%E5%B7%A6%E5%AD%90%E6%A0%91%E6%96%B0%E5%A2%9E%E5%B7%A6%E8%8A%82%E7%82%B912%22%20style%3D%22text%3Bhtml%3D1%3Balign%3Dcenter%3BverticalAlign%3Dmiddle%3Bresizable%3D0%3Bpoints%3D%5B%5D%3Bautosize%3D1%3BfontSize%3D56%3BfontColor%3D%23000000%3B%22%20vertex%3D%221%22%20parent%3D%221%22%3E%3CmxGeometry%20x%3D%22-1118%22%20y%3D%222293%22%20width%3D%22520%22%20height%3D%2271%22%20as%3D%22geometry%22%2F%3E%3C%2FmxCell%3E%3C%2Froot%3E%3C%2FmxGraphModel%3E&lt;/span&gt;" style="text;html=1;align=center;verticalAlign=middle;resizable=0;points=[];autosize=1;fontSize=56;fontColor=#000000;" vertex="1" parent="1">
                    <mxGeometry x="2127" y="2818.25" width="10" height="91" as="geometry"/>
                </mxCell>
                <mxCell id="346" value="50" style="ellipse;whiteSpace=wrap;html=1;aspect=fixed;fillColor=#FFFFFF;strokeColor=#000000;fontColor=#000000;fontSize=40;" vertex="1" parent="1">
                    <mxGeometry x="3751" y="2971" width="80" height="80" as="geometry"/>
                </mxCell>
                <mxCell id="347" value="25" style="ellipse;whiteSpace=wrap;html=1;aspect=fixed;fillColor=#FFFFFF;strokeColor=#000000;fontColor=#000000;fontSize=40;" vertex="1" parent="1">
                    <mxGeometry x="3610.5" y="2850" width="80" height="80" as="geometry"/>
                </mxCell>
                <mxCell id="348" value="75" style="ellipse;whiteSpace=wrap;html=1;aspect=fixed;fillColor=#FFFFFF;strokeColor=#000000;fontColor=#000000;fontSize=40;" vertex="1" parent="1">
                    <mxGeometry x="3883" y="3131" width="80" height="80" as="geometry"/>
                </mxCell>
                <mxCell id="349" value="12" style="ellipse;whiteSpace=wrap;html=1;aspect=fixed;fillColor=#FFFFFF;strokeColor=#000000;fontColor=#000000;fontSize=40;" vertex="1" parent="1">
                    <mxGeometry x="3471.5" y="2989" width="80" height="80" as="geometry"/>
                </mxCell>
                <mxCell id="350" value="35" style="ellipse;whiteSpace=wrap;html=1;aspect=fixed;fillColor=#FFFFFF;strokeColor=#000000;fontColor=#000000;fontSize=40;" vertex="1" parent="1">
                    <mxGeometry x="3620.5" y="3124" width="80" height="80" as="geometry"/>
                </mxCell>
                <mxCell id="351" value="10" style="ellipse;whiteSpace=wrap;html=1;aspect=fixed;fillColor=#FFFFFF;strokeColor=#000000;fontColor=#000000;fontSize=40;" vertex="1" parent="1">
                    <mxGeometry x="3356" y="3110" width="80" height="80" as="geometry"/>
                </mxCell>
                <mxCell id="352" value="" style="endArrow=none;html=1;fontSize=40;fontColor=#000000;strokeColor=#000000;strokeWidth=3;" edge="1" parent="1" source="347">
                    <mxGeometry width="50" height="50" relative="1" as="geometry">
                        <mxPoint x="3704.5" y="2846" as="sourcePoint"/>
                        <mxPoint x="3748" y="2978" as="targetPoint"/>
                    </mxGeometry>
                </mxCell>
                <mxCell id="353" value="" style="endArrow=none;html=1;fontSize=40;fontColor=#000000;strokeColor=#000000;strokeWidth=3;entryX=1;entryY=1;entryDx=0;entryDy=0;" edge="1" parent="1" source="348" target="346">
                    <mxGeometry width="50" height="50" relative="1" as="geometry">
                        <mxPoint x="3688.784271247462" y="2871.715728752538" as="sourcePoint"/>
                        <mxPoint x="3779.74" y="2788.24" as="targetPoint"/>
                    </mxGeometry>
                </mxCell>
                <mxCell id="354" value="" style="endArrow=none;html=1;fontSize=40;fontColor=#000000;strokeColor=#000000;strokeWidth=3;entryX=1;entryY=0;entryDx=0;entryDy=0;" edge="1" parent="1" source="347" target="349">
                    <mxGeometry width="50" height="50" relative="1" as="geometry">
                        <mxPoint x="3698.784271247462" y="2881.715728752538" as="sourcePoint"/>
                        <mxPoint x="3789.74" y="2798.24" as="targetPoint"/>
                    </mxGeometry>
                </mxCell>
                <mxCell id="355" value="" style="endArrow=none;html=1;fontSize=40;fontColor=#000000;strokeColor=#000000;strokeWidth=3;exitX=0.85;exitY=0.088;exitDx=0;exitDy=0;exitPerimeter=0;entryX=0;entryY=1;entryDx=0;entryDy=0;" edge="1" parent="1" source="351" target="349">
                    <mxGeometry width="50" height="50" relative="1" as="geometry">
                        <mxPoint x="3642.504271247462" y="3135.475728752538" as="sourcePoint"/>
                        <mxPoint x="3733.46" y="3052" as="targetPoint"/>
                    </mxGeometry>
                </mxCell>
                <mxCell id="356" value="" style="endArrow=none;html=1;fontSize=40;fontColor=#000000;strokeColor=#000000;strokeWidth=3;" edge="1" parent="1" source="350">
                    <mxGeometry width="50" height="50" relative="1" as="geometry">
                        <mxPoint x="3767.5016324936314" y="3007.902198036413" as="sourcePoint"/>
                        <mxPoint x="3746" y="3033" as="targetPoint"/>
                    </mxGeometry>
                </mxCell>
                <mxCell id="357" value="左子树新增左节点10" style="text;html=1;align=center;verticalAlign=middle;resizable=0;points=[];autosize=1;fontSize=56;fontColor=#000000;" vertex="1" parent="1">
                    <mxGeometry x="1963" y="3007" width="520" height="71" as="geometry"/>
                </mxCell>
                <mxCell id="358" value="" style="shape=flexArrow;endArrow=classic;html=1;strokeColor=#000000;strokeWidth=3;fontSize=56;fontColor=#000000;width=11.666666666666668;endSize=5.366666666666667;" edge="1" parent="1">
                    <mxGeometry width="50" height="50" relative="1" as="geometry">
                        <mxPoint x="3186.5" y="2989.25" as="sourcePoint"/>
                        <mxPoint x="3314.5" y="2989.25" as="targetPoint"/>
                    </mxGeometry>
                </mxCell>
                <mxCell id="359" value="" style="shape=flexArrow;endArrow=classic;html=1;strokeColor=#000000;strokeWidth=3;fontSize=56;fontColor=#000000;width=11.666666666666668;endSize=5.366666666666667;" edge="1" parent="1">
                    <mxGeometry width="50" height="50" relative="1" as="geometry">
                        <mxPoint x="2425.000000000001" y="2483.999999999999" as="sourcePoint"/>
                        <mxPoint x="2553" y="2483.999999999999" as="targetPoint"/>
                    </mxGeometry>
                </mxCell>
                <mxCell id="361" value="" style="shape=ext;double=1;rounded=0;whiteSpace=wrap;html=1;strokeColor=#000000;strokeWidth=1;fillColor=#FFFFFF;fontSize=56;fontColor=#000000;" vertex="1" parent="1">
                    <mxGeometry x="-1394" y="4855" width="194" height="230" as="geometry"/>
                </mxCell>
                <mxCell id="362" value="K=39&lt;br&gt;data&lt;br&gt;P1" style="text;html=1;align=center;verticalAlign=middle;resizable=0;points=[];autosize=1;fontSize=56;fontColor=#000000;" vertex="1" parent="1">
                    <mxGeometry x="-1366" y="4863" width="142" height="205" as="geometry"/>
                </mxCell>
                <mxCell id="363" value="" style="shape=ext;double=1;rounded=0;whiteSpace=wrap;html=1;strokeColor=#000000;strokeWidth=1;fillColor=#FFFFFF;fontSize=56;fontColor=#000000;" vertex="1" parent="1">
                    <mxGeometry x="-1200" y="4855" width="194" height="230" as="geometry"/>
                </mxCell>
                <mxCell id="364" value="K=39&lt;br&gt;data&lt;br&gt;P1" style="text;html=1;align=center;verticalAlign=middle;resizable=0;points=[];autosize=1;fontSize=56;fontColor=#000000;" vertex="1" parent="1">
                    <mxGeometry x="-1172" y="4863" width="142" height="205" as="geometry"/>
                </mxCell>
                <mxCell id="365" value="" style="shape=ext;double=1;rounded=0;whiteSpace=wrap;html=1;strokeColor=#000000;strokeWidth=1;fillColor=#FFFFFF;fontSize=56;fontColor=#000000;" vertex="1" parent="1">
                    <mxGeometry x="-1006" y="4855" width="194" height="230" as="geometry"/>
                </mxCell>
                <mxCell id="366" value="K=39&lt;br&gt;data&lt;br&gt;P1" style="text;html=1;align=center;verticalAlign=middle;resizable=0;points=[];autosize=1;fontSize=56;fontColor=#000000;" vertex="1" parent="1">
                    <mxGeometry x="-978" y="4863" width="142" height="205" as="geometry"/>
                </mxCell>
                <mxCell id="367" value="" style="shape=ext;double=1;rounded=0;whiteSpace=wrap;html=1;strokeColor=#000000;strokeWidth=1;fillColor=#FFFFFF;fontSize=56;fontColor=#000000;" vertex="1" parent="1">
                    <mxGeometry x="-812" y="4855" width="194" height="230" as="geometry"/>
                </mxCell>
                <mxCell id="368" value="K=39&lt;br&gt;data&lt;br&gt;P1" style="text;html=1;align=center;verticalAlign=middle;resizable=0;points=[];autosize=1;fontSize=56;fontColor=#000000;" vertex="1" parent="1">
                    <mxGeometry x="-784" y="4863" width="142" height="205" as="geometry"/>
                </mxCell>
                <mxCell id="369" value="" style="shape=ext;double=1;rounded=0;whiteSpace=wrap;html=1;strokeColor=#000000;strokeWidth=1;fillColor=#FFFFFF;fontSize=56;fontColor=#000000;" vertex="1" parent="1">
                    <mxGeometry x="-1384" y="5282" width="194" height="230" as="geometry"/>
                </mxCell>
                <mxCell id="370" value="K=39&lt;br&gt;data&lt;br&gt;P1" style="text;html=1;align=center;verticalAlign=middle;resizable=0;points=[];autosize=1;fontSize=56;fontColor=#000000;" vertex="1" parent="1">
                    <mxGeometry x="-1356" y="5290" width="142" height="205" as="geometry"/>
                </mxCell>
                <mxCell id="371" value="" style="shape=ext;double=1;rounded=0;whiteSpace=wrap;html=1;strokeColor=#000000;strokeWidth=1;fillColor=#FFFFFF;fontSize=56;fontColor=#000000;" vertex="1" parent="1">
                    <mxGeometry x="-1190" y="5282" width="194" height="230" as="geometry"/>
                </mxCell>
                <mxCell id="373" value="" style="shape=ext;double=1;rounded=0;whiteSpace=wrap;html=1;strokeColor=#000000;strokeWidth=1;fillColor=#FFFFFF;fontSize=56;fontColor=#000000;" vertex="1" parent="1">
                    <mxGeometry x="-996" y="5282" width="194" height="230" as="geometry"/>
                </mxCell>
                <mxCell id="375" value="" style="shape=ext;double=1;rounded=0;whiteSpace=wrap;html=1;strokeColor=#000000;strokeWidth=1;fillColor=#FFFFFF;fontSize=56;fontColor=#000000;" vertex="1" parent="1">
                    <mxGeometry x="-802" y="5282" width="194" height="230" as="geometry"/>
                </mxCell>
                <mxCell id="377" value="Ｂ树" style="text;html=1;align=center;verticalAlign=middle;resizable=0;points=[];autosize=1;fontSize=56;fontColor=#000000;" vertex="1" parent="1">
                    <mxGeometry x="-1137" y="4727" width="122" height="71" as="geometry"/>
                </mxCell>
                <mxCell id="383" value="" style="shape=ext;double=1;rounded=0;whiteSpace=wrap;html=1;strokeColor=#000000;strokeWidth=1;fillColor=#FFFFFF;fontSize=56;fontColor=#000000;" vertex="1" parent="1">
                    <mxGeometry x="-1384" y="5716" width="194" height="230" as="geometry"/>
                </mxCell>
                <mxCell id="384" value="K=22&lt;br&gt;data&lt;br&gt;P1" style="text;html=1;align=center;verticalAlign=middle;resizable=0;points=[];autosize=1;fontSize=56;fontColor=#000000;" vertex="1" parent="1">
                    <mxGeometry x="-1356" y="5724" width="142" height="205" as="geometry"/>
                </mxCell>
                <mxCell id="385" value="" style="shape=ext;double=1;rounded=0;whiteSpace=wrap;html=1;strokeColor=#000000;strokeWidth=1;fillColor=#FFFFFF;fontSize=56;fontColor=#000000;" vertex="1" parent="1">
                    <mxGeometry x="-1190" y="5716" width="194" height="230" as="geometry"/>
                </mxCell>
                <mxCell id="386" value="K=39&lt;br&gt;data&lt;br&gt;P2" style="text;html=1;align=center;verticalAlign=middle;resizable=0;points=[];autosize=1;fontSize=56;fontColor=#000000;" vertex="1" parent="1">
                    <mxGeometry x="-1162" y="5724" width="142" height="205" as="geometry"/>
                </mxCell>
                <mxCell id="387" value="" style="shape=ext;double=1;rounded=0;whiteSpace=wrap;html=1;strokeColor=#000000;strokeWidth=1;fillColor=#FFFFFF;fontSize=56;fontColor=#000000;" vertex="1" parent="1">
                    <mxGeometry x="-996" y="5716" width="194" height="230" as="geometry"/>
                </mxCell>
                <mxCell id="388" value="K=41&lt;br&gt;data&lt;br&gt;P3" style="text;html=1;align=center;verticalAlign=middle;resizable=0;points=[];autosize=1;fontSize=56;fontColor=#000000;" vertex="1" parent="1">
                    <mxGeometry x="-968" y="5724" width="142" height="205" as="geometry"/>
                </mxCell>
                <mxCell id="389" value="" style="shape=ext;double=1;rounded=0;whiteSpace=wrap;html=1;strokeColor=#000000;strokeWidth=1;fillColor=#FFFFFF;fontSize=56;fontColor=#000000;" vertex="1" parent="1">
                    <mxGeometry x="-802" y="5716" width="194" height="230" as="geometry"/>
                </mxCell>
                <mxCell id="390" value="K=97&lt;br&gt;data&lt;br&gt;P4" style="text;html=1;align=center;verticalAlign=middle;resizable=0;points=[];autosize=1;fontSize=56;fontColor=#000000;" vertex="1" parent="1">
                    <mxGeometry x="-774" y="5724" width="142" height="205" as="geometry"/>
                </mxCell>
                <mxCell id="391" value="" style="shape=ext;double=1;rounded=0;whiteSpace=wrap;html=1;strokeColor=#000000;strokeWidth=1;fillColor=#FFFFFF;fontSize=56;fontColor=#000000;" vertex="1" parent="1">
                    <mxGeometry x="-2170" y="6596" width="194" height="230" as="geometry"/>
                </mxCell>
                <mxCell id="392" value="K=22&lt;br&gt;data&lt;br&gt;P1" style="text;html=1;align=center;verticalAlign=middle;resizable=0;points=[];autosize=1;fontSize=56;fontColor=#000000;" vertex="1" parent="1">
                    <mxGeometry x="-2142" y="6604" width="142" height="205" as="geometry"/>
                </mxCell>
                <mxCell id="393" value="" style="shape=ext;double=1;rounded=0;whiteSpace=wrap;html=1;strokeColor=#000000;strokeWidth=1;fillColor=#FFFFFF;fontSize=56;fontColor=#000000;" vertex="1" parent="1">
                    <mxGeometry x="-1976" y="6596" width="194" height="230" as="geometry"/>
                </mxCell>
                <mxCell id="394" value="K=39&lt;br&gt;data&lt;br&gt;P2" style="text;html=1;align=center;verticalAlign=middle;resizable=0;points=[];autosize=1;fontSize=56;fontColor=#000000;" vertex="1" parent="1">
                    <mxGeometry x="-1948" y="6604" width="142" height="205" as="geometry"/>
                </mxCell>
                <mxCell id="395" value="" style="shape=ext;double=1;rounded=0;whiteSpace=wrap;html=1;strokeColor=#000000;strokeWidth=1;fillColor=#FFFFFF;fontSize=56;fontColor=#000000;" vertex="1" parent="1">
                    <mxGeometry x="-1782" y="6596" width="194" height="230" as="geometry"/>
                </mxCell>
                <mxCell id="396" value="K=41&lt;br&gt;data&lt;br&gt;P3" style="text;html=1;align=center;verticalAlign=middle;resizable=0;points=[];autosize=1;fontSize=56;fontColor=#000000;" vertex="1" parent="1">
                    <mxGeometry x="-1754" y="6604" width="142" height="205" as="geometry"/>
                </mxCell>
                <mxCell id="397" value="" style="shape=ext;double=1;rounded=0;whiteSpace=wrap;html=1;strokeColor=#000000;strokeWidth=1;fillColor=#FFFFFF;fontSize=56;fontColor=#000000;" vertex="1" parent="1">
                    <mxGeometry x="-1588" y="6596" width="194" height="230" as="geometry"/>
                </mxCell>
                <mxCell id="398" value="K=53&lt;br&gt;data&lt;br&gt;P4" style="text;html=1;align=center;verticalAlign=middle;resizable=0;points=[];autosize=1;fontSize=56;fontColor=#000000;" vertex="1" parent="1">
                    <mxGeometry x="-1560" y="6604" width="142" height="205" as="geometry"/>
                </mxCell>
                <mxCell id="399" value="" style="shape=ext;double=1;rounded=0;whiteSpace=wrap;html=1;strokeColor=#000000;strokeWidth=1;fillColor=#FFFFFF;fontSize=56;fontColor=#000000;" vertex="1" parent="1">
                    <mxGeometry x="-1398" y="6596" width="194" height="230" as="geometry"/>
                </mxCell>
                <mxCell id="400" value="K=97&lt;br&gt;data&lt;br&gt;P5" style="text;html=1;align=center;verticalAlign=middle;resizable=0;points=[];autosize=1;fontSize=56;fontColor=#000000;" vertex="1" parent="1">
                    <mxGeometry x="-1370" y="6604" width="142" height="205" as="geometry"/>
                </mxCell>
                <mxCell id="401" value="" style="shape=ext;double=1;rounded=0;whiteSpace=wrap;html=1;strokeColor=#000000;strokeWidth=1;fillColor=#FFFFFF;fontSize=56;fontColor=#000000;" vertex="1" parent="1">
                    <mxGeometry x="-562" y="6378" width="194" height="230" as="geometry"/>
                </mxCell>
                <mxCell id="402" value="K=41&lt;br&gt;data&lt;br&gt;P1" style="text;html=1;align=center;verticalAlign=middle;resizable=0;points=[];autosize=1;fontSize=56;fontColor=#000000;" vertex="1" parent="1">
                    <mxGeometry x="-534" y="6386" width="142" height="205" as="geometry"/>
                </mxCell>
                <mxCell id="403" value="" style="shape=ext;double=1;rounded=0;whiteSpace=wrap;html=1;strokeColor=#000000;strokeWidth=1;fillColor=#FFFFFF;fontSize=56;fontColor=#000000;" vertex="1" parent="1">
                    <mxGeometry x="-368" y="6378" width="194" height="230" as="geometry"/>
                </mxCell>
                <mxCell id="404" value="" style="shape=ext;double=1;rounded=0;whiteSpace=wrap;html=1;strokeColor=#000000;strokeWidth=1;fillColor=#FFFFFF;fontSize=56;fontColor=#000000;" vertex="1" parent="1">
                    <mxGeometry x="-174" y="6378" width="194" height="230" as="geometry"/>
                </mxCell>
                <mxCell id="405" value="" style="shape=ext;double=1;rounded=0;whiteSpace=wrap;html=1;strokeColor=#000000;strokeWidth=1;fillColor=#FFFFFF;fontSize=56;fontColor=#000000;" vertex="1" parent="1">
                    <mxGeometry x="20" y="6378" width="194" height="230" as="geometry"/>
                </mxCell>
                <mxCell id="406" value="" style="shape=ext;double=1;rounded=0;whiteSpace=wrap;html=1;strokeColor=#000000;strokeWidth=1;fillColor=#FFFFFF;fontSize=56;fontColor=#000000;" vertex="1" parent="1">
                    <mxGeometry x="-1020" y="6883" width="194" height="230" as="geometry"/>
                </mxCell>
                <mxCell id="407" value="K=22&lt;br&gt;data&lt;br&gt;P1" style="text;html=1;align=center;verticalAlign=middle;resizable=0;points=[];autosize=1;fontSize=56;fontColor=#000000;" vertex="1" parent="1">
                    <mxGeometry x="-992" y="6891" width="142" height="205" as="geometry"/>
                </mxCell>
                <mxCell id="408" value="" style="shape=ext;double=1;rounded=0;whiteSpace=wrap;html=1;strokeColor=#000000;strokeWidth=1;fillColor=#FFFFFF;fontSize=56;fontColor=#000000;" vertex="1" parent="1">
                    <mxGeometry x="-826" y="6883" width="194" height="230" as="geometry"/>
                </mxCell>
                <mxCell id="409" value="K=39&lt;br&gt;data&lt;br&gt;P2" style="text;html=1;align=center;verticalAlign=middle;resizable=0;points=[];autosize=1;fontSize=56;fontColor=#000000;" vertex="1" parent="1">
                    <mxGeometry x="-798" y="6891" width="142" height="205" as="geometry"/>
                </mxCell>
                <mxCell id="410" value="" style="shape=ext;double=1;rounded=0;whiteSpace=wrap;html=1;strokeColor=#000000;strokeWidth=1;fillColor=#FFFFFF;fontSize=56;fontColor=#000000;" vertex="1" parent="1">
                    <mxGeometry x="-632" y="6883" width="194" height="230" as="geometry"/>
                </mxCell>
                <mxCell id="412" value="" style="shape=ext;double=1;rounded=0;whiteSpace=wrap;html=1;strokeColor=#000000;strokeWidth=1;fillColor=#FFFFFF;fontSize=56;fontColor=#000000;" vertex="1" parent="1">
                    <mxGeometry x="-438" y="6883" width="194" height="230" as="geometry"/>
                </mxCell>
                <mxCell id="415" value="" style="shape=ext;double=1;rounded=0;whiteSpace=wrap;html=1;strokeColor=#000000;strokeWidth=1;fillColor=#FFFFFF;fontSize=56;fontColor=#000000;" vertex="1" parent="1">
                    <mxGeometry x="-84" y="6883" width="194" height="230" as="geometry"/>
                </mxCell>
                <mxCell id="416" value="K=53&lt;br&gt;data&lt;br&gt;P1" style="text;html=1;align=center;verticalAlign=middle;resizable=0;points=[];autosize=1;fontSize=56;fontColor=#000000;" vertex="1" parent="1">
                    <mxGeometry x="-56" y="6891" width="142" height="205" as="geometry"/>
                </mxCell>
                <mxCell id="417" value="" style="shape=ext;double=1;rounded=0;whiteSpace=wrap;html=1;strokeColor=#000000;strokeWidth=1;fillColor=#FFFFFF;fontSize=56;fontColor=#000000;" vertex="1" parent="1">
                    <mxGeometry x="106" y="6883" width="194" height="230" as="geometry"/>
                </mxCell>
                <mxCell id="418" value="K=97&lt;br&gt;data&lt;br&gt;P2" style="text;html=1;align=center;verticalAlign=middle;resizable=0;points=[];autosize=1;fontSize=56;fontColor=#000000;" vertex="1" parent="1">
                    <mxGeometry x="134" y="6891" width="142" height="205" as="geometry"/>
                </mxCell>
                <mxCell id="419" value="" style="shape=ext;double=1;rounded=0;whiteSpace=wrap;html=1;strokeColor=#000000;strokeWidth=1;fillColor=#FFFFFF;fontSize=56;fontColor=#000000;" vertex="1" parent="1">
                    <mxGeometry x="300" y="6883" width="194" height="230" as="geometry"/>
                </mxCell>
                <mxCell id="420" value="" style="shape=ext;double=1;rounded=0;whiteSpace=wrap;html=1;strokeColor=#000000;strokeWidth=1;fillColor=#FFFFFF;fontSize=56;fontColor=#000000;" vertex="1" parent="1">
                    <mxGeometry x="494" y="6883" width="194" height="230" as="geometry"/>
                </mxCell>
                <mxCell id="421" value="" style="line;strokeWidth=2;direction=south;html=1;fillColor=#FFFFFF;fontSize=56;fontColor=#000000;" vertex="1" parent="1">
                    <mxGeometry x="-994" y="6703" width="10" height="160" as="geometry"/>
                </mxCell>
                <mxCell id="422" value="" style="line;strokeWidth=2;direction=south;html=1;fillColor=#FFFFFF;fontSize=56;fontColor=#000000;" vertex="1" parent="1">
                    <mxGeometry x="-518" y="6376" width="10" height="160" as="geometry"/>
                </mxCell>
                <mxCell id="423" value="" style="endArrow=none;html=1;strokeColor=#000000;strokeWidth=3;fontSize=56;fontColor=#000000;exitX=0.148;exitY=-0.054;exitDx=0;exitDy=0;exitPerimeter=0;" edge="1" parent="1" source="407">
                    <mxGeometry width="50" height="50" relative="1" as="geometry">
                        <mxPoint x="-865" y="6757" as="sourcePoint"/>
                        <mxPoint x="-497" y="6635" as="targetPoint"/>
                    </mxGeometry>
                </mxCell>
                <mxCell id="424" value="" style="endArrow=none;html=1;strokeColor=#000000;strokeWidth=3;fontSize=56;fontColor=#000000;" edge="1" parent="1">
                    <mxGeometry width="50" height="50" relative="1" as="geometry">
                        <mxPoint x="-54" y="6878" as="sourcePoint"/>
                        <mxPoint x="-487" y="6645" as="targetPoint"/>
                    </mxGeometry>
                </mxCell>
                <mxCell id="425" value="" style="shape=ext;double=1;rounded=0;whiteSpace=wrap;html=1;strokeColor=#000000;strokeWidth=1;fillColor=#FFFFFF;fontSize=56;fontColor=#000000;" vertex="1" parent="1">
                    <mxGeometry x="-1812" y="7803" width="194" height="230" as="geometry"/>
                </mxCell>
                <mxCell id="426" value="K=41&lt;br&gt;data&lt;br&gt;P1" style="text;html=1;align=center;verticalAlign=middle;resizable=0;points=[];autosize=1;fontSize=56;fontColor=#000000;" vertex="1" parent="1">
                    <mxGeometry x="-1784" y="7811" width="142" height="205" as="geometry"/>
                </mxCell>
                <mxCell id="427" value="" style="shape=ext;double=1;rounded=0;whiteSpace=wrap;html=1;strokeColor=#000000;strokeWidth=1;fillColor=#FFFFFF;fontSize=56;fontColor=#000000;" vertex="1" parent="1">
                    <mxGeometry x="-1618" y="7803" width="194" height="230" as="geometry"/>
                </mxCell>
                <mxCell id="428" value="" style="shape=ext;double=1;rounded=0;whiteSpace=wrap;html=1;strokeColor=#000000;strokeWidth=1;fillColor=#FFFFFF;fontSize=56;fontColor=#000000;" vertex="1" parent="1">
                    <mxGeometry x="-1424" y="7803" width="194" height="230" as="geometry"/>
                </mxCell>
                <mxCell id="429" value="" style="shape=ext;double=1;rounded=0;whiteSpace=wrap;html=1;strokeColor=#000000;strokeWidth=1;fillColor=#FFFFFF;fontSize=56;fontColor=#000000;" vertex="1" parent="1">
                    <mxGeometry x="-1230" y="7803" width="194" height="230" as="geometry"/>
                </mxCell>
                <mxCell id="430" value="" style="shape=ext;double=1;rounded=0;whiteSpace=wrap;html=1;strokeColor=#000000;strokeWidth=1;fillColor=#FFFFFF;fontSize=56;fontColor=#000000;" vertex="1" parent="1">
                    <mxGeometry x="-2270" y="8308" width="194" height="230" as="geometry"/>
                </mxCell>
                <mxCell id="431" value="K=22&lt;br&gt;data&lt;br&gt;P3" style="text;html=1;align=center;verticalAlign=middle;resizable=0;points=[];autosize=1;fontSize=56;fontColor=#000000;" vertex="1" parent="1">
                    <mxGeometry x="-2242" y="8316" width="142" height="205" as="geometry"/>
                </mxCell>
                <mxCell id="432" value="" style="shape=ext;double=1;rounded=0;whiteSpace=wrap;html=1;strokeColor=#000000;strokeWidth=1;fillColor=#FFFFFF;fontSize=56;fontColor=#000000;" vertex="1" parent="1">
                    <mxGeometry x="-2076" y="8308" width="194" height="230" as="geometry"/>
                </mxCell>
                <mxCell id="433" value="K=39&lt;br&gt;data&lt;br&gt;P4" style="text;html=1;align=center;verticalAlign=middle;resizable=0;points=[];autosize=1;fontSize=56;fontColor=#000000;" vertex="1" parent="1">
                    <mxGeometry x="-2048" y="8316" width="142" height="205" as="geometry"/>
                </mxCell>
                <mxCell id="436" value="" style="shape=ext;double=1;rounded=0;whiteSpace=wrap;html=1;strokeColor=#000000;strokeWidth=1;fillColor=#FFFFFF;fontSize=56;fontColor=#000000;" vertex="1" parent="1">
                    <mxGeometry x="-1334" y="8308" width="194" height="230" as="geometry"/>
                </mxCell>
                <mxCell id="437" value="K=53&lt;br&gt;data&lt;br&gt;P1" style="text;html=1;align=center;verticalAlign=middle;resizable=0;points=[];autosize=1;fontSize=56;fontColor=#000000;" vertex="1" parent="1">
                    <mxGeometry x="-1306" y="8316" width="142" height="205" as="geometry"/>
                </mxCell>
                <mxCell id="438" value="" style="shape=ext;double=1;rounded=0;whiteSpace=wrap;html=1;strokeColor=#000000;strokeWidth=1;fillColor=#FFFFFF;fontSize=56;fontColor=#000000;" vertex="1" parent="1">
                    <mxGeometry x="-1144" y="8308" width="194" height="230" as="geometry"/>
                </mxCell>
                <mxCell id="439" value="K=97&lt;br&gt;data&lt;br&gt;P2" style="text;html=1;align=center;verticalAlign=middle;resizable=0;points=[];autosize=1;fontSize=56;fontColor=#000000;" vertex="1" parent="1">
                    <mxGeometry x="-1116" y="8316" width="142" height="205" as="geometry"/>
                </mxCell>
                <mxCell id="440" value="" style="shape=ext;double=1;rounded=0;whiteSpace=wrap;html=1;strokeColor=#000000;strokeWidth=1;fillColor=#FFFFFF;fontSize=56;fontColor=#000000;" vertex="1" parent="1">
                    <mxGeometry x="-950" y="8308" width="194" height="230" as="geometry"/>
                </mxCell>
                <mxCell id="441" value="" style="shape=ext;double=1;rounded=0;whiteSpace=wrap;html=1;strokeColor=#000000;strokeWidth=1;fillColor=#FFFFFF;fontSize=56;fontColor=#000000;" vertex="1" parent="1">
                    <mxGeometry x="-756" y="8308" width="194" height="230" as="geometry"/>
                </mxCell>
                <mxCell id="442" value="" style="line;strokeWidth=2;direction=south;html=1;fillColor=#FFFFFF;fontSize=56;fontColor=#000000;" vertex="1" parent="1">
                    <mxGeometry x="-2244" y="8128" width="10" height="160" as="geometry"/>
                </mxCell>
                <mxCell id="443" value="" style="line;strokeWidth=2;direction=south;html=1;fillColor=#FFFFFF;fontSize=56;fontColor=#000000;" vertex="1" parent="1">
                    <mxGeometry x="-1768" y="7801" width="10" height="160" as="geometry"/>
                </mxCell>
                <mxCell id="444" value="" style="endArrow=none;html=1;strokeColor=#000000;strokeWidth=3;fontSize=56;fontColor=#000000;exitX=0.148;exitY=-0.054;exitDx=0;exitDy=0;exitPerimeter=0;" edge="1" parent="1" source="431">
                    <mxGeometry width="50" height="50" relative="1" as="geometry">
                        <mxPoint x="-2115" y="8182" as="sourcePoint"/>
                        <mxPoint x="-1747.000000000001" y="8060" as="targetPoint"/>
                    </mxGeometry>
                </mxCell>
                <mxCell id="445" value="" style="endArrow=none;html=1;strokeColor=#000000;strokeWidth=3;fontSize=56;fontColor=#000000;" edge="1" parent="1">
                    <mxGeometry width="50" height="50" relative="1" as="geometry">
                        <mxPoint x="-1304" y="8303" as="sourcePoint"/>
                        <mxPoint x="-1737.000000000001" y="8070" as="targetPoint"/>
                    </mxGeometry>
                </mxCell>
                <mxCell id="446" value="" style="shape=ext;double=1;rounded=0;whiteSpace=wrap;html=1;strokeColor=#000000;strokeWidth=1;fillColor=#FFFFFF;fontSize=56;fontColor=#000000;" vertex="1" parent="1">
                    <mxGeometry x="-2664" y="8311" width="194" height="230" as="geometry"/>
                </mxCell>
                <mxCell id="447" value="K=13&lt;br&gt;data&lt;br&gt;P1" style="text;html=1;align=center;verticalAlign=middle;resizable=0;points=[];autosize=1;fontSize=56;fontColor=#000000;" vertex="1" parent="1">
                    <mxGeometry x="-2636" y="8319" width="142" height="205" as="geometry"/>
                </mxCell>
                <mxCell id="448" value="" style="shape=ext;double=1;rounded=0;whiteSpace=wrap;html=1;strokeColor=#000000;strokeWidth=1;fillColor=#FFFFFF;fontSize=56;fontColor=#000000;" vertex="1" parent="1">
                    <mxGeometry x="-2470" y="8311" width="194" height="230" as="geometry"/>
                </mxCell>
                <mxCell id="449" value="K=21&lt;br&gt;data&lt;br&gt;P2" style="text;html=1;align=center;verticalAlign=middle;resizable=0;points=[];autosize=1;fontSize=56;fontColor=#000000;" vertex="1" parent="1">
                    <mxGeometry x="-2442" y="8319" width="142" height="205" as="geometry"/>
                </mxCell>
                <mxCell id="450" value="" style="shape=ext;double=1;rounded=0;whiteSpace=wrap;html=1;strokeColor=#000000;strokeWidth=1;fillColor=#FFFFFF;fontSize=56;fontColor=#000000;" vertex="1" parent="1">
                    <mxGeometry x="-1876" y="8308" width="194" height="230" as="geometry"/>
                </mxCell>
                <mxCell id="451" value="K=40&lt;br&gt;data&lt;br&gt;P5" style="text;html=1;align=center;verticalAlign=middle;resizable=0;points=[];autosize=1;fontSize=56;fontColor=#000000;" vertex="1" parent="1">
                    <mxGeometry x="-1848" y="8316" width="142" height="205" as="geometry"/>
                </mxCell>
                <mxCell id="452" value="" style="shape=ext;double=1;rounded=0;whiteSpace=wrap;html=1;strokeColor=#000000;strokeWidth=1;fillColor=#FFFFFF;fontSize=56;fontColor=#000000;" vertex="1" parent="1">
                    <mxGeometry x="638" y="7818" width="194" height="230" as="geometry"/>
                </mxCell>
                <mxCell id="453" value="K=22&lt;br&gt;data&lt;br&gt;P1" style="text;html=1;align=center;verticalAlign=middle;resizable=0;points=[];autosize=1;fontSize=56;fontColor=#000000;" vertex="1" parent="1">
                    <mxGeometry x="666" y="7826" width="142" height="205" as="geometry"/>
                </mxCell>
                <mxCell id="454" value="" style="shape=ext;double=1;rounded=0;whiteSpace=wrap;html=1;strokeColor=#000000;strokeWidth=1;fillColor=#FFFFFF;fontSize=56;fontColor=#000000;" vertex="1" parent="1">
                    <mxGeometry x="832" y="7818" width="194" height="230" as="geometry"/>
                </mxCell>
                <mxCell id="455" value="" style="shape=ext;double=1;rounded=0;whiteSpace=wrap;html=1;strokeColor=#000000;strokeWidth=1;fillColor=#FFFFFF;fontSize=56;fontColor=#000000;" vertex="1" parent="1">
                    <mxGeometry x="1026" y="7818" width="194" height="230" as="geometry"/>
                </mxCell>
                <mxCell id="456" value="" style="shape=ext;double=1;rounded=0;whiteSpace=wrap;html=1;strokeColor=#000000;strokeWidth=1;fillColor=#FFFFFF;fontSize=56;fontColor=#000000;" vertex="1" parent="1">
                    <mxGeometry x="1220" y="7818" width="194" height="230" as="geometry"/>
                </mxCell>
                <mxCell id="457" value="" style="shape=ext;double=1;rounded=0;whiteSpace=wrap;html=1;strokeColor=#000000;strokeWidth=1;fillColor=#FFFFFF;fontSize=56;fontColor=#000000;" vertex="1" parent="1">
                    <mxGeometry x="180" y="8323" width="194" height="230" as="geometry"/>
                </mxCell>
                <mxCell id="459" value="" style="shape=ext;double=1;rounded=0;whiteSpace=wrap;html=1;strokeColor=#000000;strokeWidth=1;fillColor=#FFFFFF;fontSize=56;fontColor=#000000;" vertex="1" parent="1">
                    <mxGeometry x="374" y="8323" width="194" height="230" as="geometry"/>
                </mxCell>
                <mxCell id="461" value="" style="shape=ext;double=1;rounded=0;whiteSpace=wrap;html=1;strokeColor=#000000;strokeWidth=1;fillColor=#FFFFFF;fontSize=56;fontColor=#000000;" vertex="1" parent="1">
                    <mxGeometry x="1591" y="8321.5" width="194" height="230" as="geometry"/>
                </mxCell>
                <mxCell id="462" value="K=53&lt;br&gt;data&lt;br&gt;P1" style="text;html=1;align=center;verticalAlign=middle;resizable=0;points=[];autosize=1;fontSize=56;fontColor=#000000;" vertex="1" parent="1">
                    <mxGeometry x="1619" y="8329.5" width="142" height="205" as="geometry"/>
                </mxCell>
                <mxCell id="463" value="" style="shape=ext;double=1;rounded=0;whiteSpace=wrap;html=1;strokeColor=#000000;strokeWidth=1;fillColor=#FFFFFF;fontSize=56;fontColor=#000000;" vertex="1" parent="1">
                    <mxGeometry x="1781" y="8321.5" width="194" height="230" as="geometry"/>
                </mxCell>
                <mxCell id="464" value="K=97&lt;br&gt;data&lt;br&gt;P2" style="text;html=1;align=center;verticalAlign=middle;resizable=0;points=[];autosize=1;fontSize=56;fontColor=#000000;" vertex="1" parent="1">
                    <mxGeometry x="1809" y="8329.5" width="142" height="205" as="geometry"/>
                </mxCell>
                <mxCell id="465" value="" style="shape=ext;double=1;rounded=0;whiteSpace=wrap;html=1;strokeColor=#000000;strokeWidth=1;fillColor=#FFFFFF;fontSize=56;fontColor=#000000;" vertex="1" parent="1">
                    <mxGeometry x="1975" y="8321.5" width="194" height="230" as="geometry"/>
                </mxCell>
                <mxCell id="466" value="" style="shape=ext;double=1;rounded=0;whiteSpace=wrap;html=1;strokeColor=#000000;strokeWidth=1;fillColor=#FFFFFF;fontSize=56;fontColor=#000000;" vertex="1" parent="1">
                    <mxGeometry x="2169" y="8321.5" width="194" height="230" as="geometry"/>
                </mxCell>
                <mxCell id="467" value="" style="line;strokeWidth=2;direction=south;html=1;fillColor=#FFFFFF;fontSize=56;fontColor=#000000;" vertex="1" parent="1">
                    <mxGeometry x="206" y="8143" width="10" height="160" as="geometry"/>
                </mxCell>
                <mxCell id="468" value="" style="line;strokeWidth=2;direction=south;html=1;fillColor=#FFFFFF;fontSize=56;fontColor=#000000;" vertex="1" parent="1">
                    <mxGeometry x="682" y="7816" width="10" height="160" as="geometry"/>
                </mxCell>
                <mxCell id="469" value="" style="endArrow=none;html=1;strokeColor=#000000;strokeWidth=3;fontSize=56;fontColor=#000000;exitX=0.183;exitY=-0.069;exitDx=0;exitDy=0;exitPerimeter=0;" edge="1" parent="1" source="472">
                    <mxGeometry width="50" height="50" relative="1" as="geometry">
                        <mxPoint x="229.01599999999962" y="8319.93" as="sourcePoint"/>
                        <mxPoint x="702.9999999999991" y="8075" as="targetPoint"/>
                    </mxGeometry>
                </mxCell>
                <mxCell id="470" value="" style="endArrow=none;html=1;strokeColor=#000000;strokeWidth=3;fontSize=56;fontColor=#000000;" edge="1" parent="1">
                    <mxGeometry width="50" height="50" relative="1" as="geometry">
                        <mxPoint x="1599" y="8288" as="sourcePoint"/>
                        <mxPoint x="1034.999999999999" y="8055" as="targetPoint"/>
                    </mxGeometry>
                </mxCell>
                <mxCell id="471" value="" style="shape=ext;double=1;rounded=0;whiteSpace=wrap;html=1;strokeColor=#000000;strokeWidth=1;fillColor=#FFFFFF;fontSize=56;fontColor=#000000;" vertex="1" parent="1">
                    <mxGeometry x="-214" y="8326" width="194" height="230" as="geometry"/>
                </mxCell>
                <mxCell id="472" value="K=13&lt;br&gt;data&lt;br&gt;P1" style="text;html=1;align=center;verticalAlign=middle;resizable=0;points=[];autosize=1;fontSize=56;fontColor=#000000;" vertex="1" parent="1">
                    <mxGeometry x="-186" y="8334" width="142" height="205" as="geometry"/>
                </mxCell>
                <mxCell id="473" value="" style="shape=ext;double=1;rounded=0;whiteSpace=wrap;html=1;strokeColor=#000000;strokeWidth=1;fillColor=#FFFFFF;fontSize=56;fontColor=#000000;" vertex="1" parent="1">
                    <mxGeometry x="-20" y="8326" width="194" height="230" as="geometry"/>
                </mxCell>
                <mxCell id="474" value="K=21&lt;br&gt;data&lt;br&gt;P2" style="text;html=1;align=center;verticalAlign=middle;resizable=0;points=[];autosize=1;fontSize=56;fontColor=#000000;" vertex="1" parent="1">
                    <mxGeometry x="8" y="8334" width="142" height="205" as="geometry"/>
                </mxCell>
                <mxCell id="477" value="K=41&lt;br&gt;data&lt;br&gt;P2" style="text;html=1;align=center;verticalAlign=middle;resizable=0;points=[];autosize=1;fontSize=56;fontColor=#000000;" vertex="1" parent="1">
                    <mxGeometry x="871" y="7828" width="142" height="205" as="geometry"/>
                </mxCell>
                <mxCell id="480" value="" style="shape=ext;double=1;rounded=0;whiteSpace=wrap;html=1;strokeColor=#000000;strokeWidth=1;fillColor=#FFFFFF;fontSize=56;fontColor=#000000;" vertex="1" parent="1">
                    <mxGeometry x="671" y="8323" width="194" height="230" as="geometry"/>
                </mxCell>
                <mxCell id="481" value="K=39&lt;br&gt;data&lt;br&gt;P1" style="text;html=1;align=center;verticalAlign=middle;resizable=0;points=[];autosize=1;fontSize=56;fontColor=#000000;" vertex="1" parent="1">
                    <mxGeometry x="699" y="8331" width="142" height="205" as="geometry"/>
                </mxCell>
                <mxCell id="486" value="" style="shape=ext;double=1;rounded=0;whiteSpace=wrap;html=1;strokeColor=#000000;strokeWidth=1;fillColor=#FFFFFF;fontSize=56;fontColor=#000000;" vertex="1" parent="1">
                    <mxGeometry x="871" y="8323" width="194" height="230" as="geometry"/>
                </mxCell>
                <mxCell id="487" value="K=40&lt;br&gt;data&lt;br&gt;P2" style="text;html=1;align=center;verticalAlign=middle;resizable=0;points=[];autosize=1;fontSize=56;fontColor=#000000;" vertex="1" parent="1">
                    <mxGeometry x="899" y="8331" width="142" height="205" as="geometry"/>
                </mxCell>
                <mxCell id="488" value="" style="shape=ext;double=1;rounded=0;whiteSpace=wrap;html=1;strokeColor=#000000;strokeWidth=1;fillColor=#FFFFFF;fontSize=56;fontColor=#000000;" vertex="1" parent="1">
                    <mxGeometry x="1073" y="8323" width="194" height="230" as="geometry"/>
                </mxCell>
                <mxCell id="489" value="" style="shape=ext;double=1;rounded=0;whiteSpace=wrap;html=1;strokeColor=#000000;strokeWidth=1;fillColor=#FFFFFF;fontSize=56;fontColor=#000000;" vertex="1" parent="1">
                    <mxGeometry x="1267" y="8323" width="194" height="230" as="geometry"/>
                </mxCell>
                <mxCell id="494" value="" style="endArrow=none;html=1;strokeColor=#000000;strokeWidth=3;fontSize=56;fontColor=#000000;exitX=0.158;exitY=-0.032;exitDx=0;exitDy=0;exitPerimeter=0;" edge="1" parent="1" source="481">
                    <mxGeometry width="50" height="50" relative="1" as="geometry">
                        <mxPoint x="949" y="8610" as="sourcePoint"/>
                        <mxPoint x="847.5" y="8070" as="targetPoint"/>
                    </mxGeometry>
                </mxCell>
            </root>
        </mxGraphModel>
    </diagram>
</mxfile>